<svg width="30" height="30" viewBox="0 0 30 30" fill="none" xmlns="http://www.w3.org/2000/svg">
<g clip-path="url(#clip0)">
<path d="M15.0006 0C6.71664 0 0.000976562 6.71587 0.000976562 14.9998C0.000976562 23.2836 6.71664 30 15.0006 30C23.2846 30 30.0008 23.2836 30.0008 14.9998C30.0008 6.71587 23.2846 0 15.0006 0ZM15.0009 5.26865L23.8773 10.8037H6.12454L15.0009 5.26865ZM23.9879 19.6425H23.987C23.987 20.5303 23.2675 21.2497 22.3798 21.2497H7.62205C6.73424 21.2497 6.01484 20.5302 6.01484 19.6425V11.1559C6.01484 11.062 6.02444 10.9707 6.04004 10.881L14.5209 16.1694C14.5313 16.1759 14.5424 16.1803 14.5531 16.1863C14.5643 16.1925 14.5757 16.1985 14.5871 16.2042C14.647 16.2351 14.7087 16.26 14.7718 16.2763C14.7783 16.2781 14.7848 16.2789 14.7913 16.2804C14.8605 16.2967 14.9306 16.3069 15.0006 16.3069H15.0011C15.0016 16.3069 15.0021 16.3069 15.0021 16.3069C15.0721 16.3069 15.1422 16.297 15.2114 16.2804C15.2179 16.2788 15.2244 16.2781 15.2309 16.2763C15.2939 16.26 15.3554 16.2351 15.4156 16.2042C15.427 16.1985 15.4384 16.1925 15.4496 16.1863C15.4602 16.1803 15.4714 16.1759 15.4818 16.1694L23.9627 10.881C23.9783 10.9707 23.9879 11.0618 23.9879 11.1559V19.6425Z" fill="#007655"/>
</g>
<defs>
<clipPath id="clip0">
<rect width="30" height="30" fill="white"/>
</clipPath>
</defs>
</svg>
