<svg width="30" height="30" viewBox="0 0 30 30" fill="none" xmlns="http://www.w3.org/2000/svg">
<circle cx="15" cy="15" r="15" fill="#007655"/>
<path d="M20.9547 9.13954C19.6361 7.13023 17.4593 6 15.0105 6C12.5826 6 10.4058 7.13023 9.04537 9.13954C7.6849 11.107 7.37095 13.6186 8.20816 15.8163C8.43839 16.4023 8.79421 17.0093 9.25467 17.5535L14.55 23.7907C14.6756 23.9163 14.8012 24 14.9896 24C15.1779 24 15.3035 23.9163 15.4291 23.7907L20.7454 17.5535C21.2058 17.0093 21.5826 16.4233 21.7919 15.8163C22.6291 13.6186 22.3151 11.107 20.9547 9.13954ZM15.0105 16.5488C13.2105 16.5488 11.7244 15.0628 11.7244 13.2628C11.7244 11.4628 13.2105 9.97674 15.0105 9.97674C16.8105 9.97674 18.2965 11.4628 18.2965 13.2628C18.2965 15.0628 16.8314 16.5488 15.0105 16.5488Z" fill="white"/>
</svg>
