<svg width="54" height="52" viewBox="0 0 54 52" fill="none" xmlns="http://www.w3.org/2000/svg">
<path d="M27.2672 37.154L27 36.9851L26.7328 37.154L15.9332 43.9822L19.0853 31.6069L19.1625 31.3039L18.9239 31.1019L9.26488 22.9243L21.8437 22.0977L22.1588 22.077L22.2755 21.7836L27 9.91068L31.7245 21.7837L31.8412 22.0771L32.1563 22.0978L44.7497 22.9243L35.0762 31.1008L34.8372 31.3028L34.9145 31.6061L38.0668 43.9822L27.2672 37.154ZM14.654 44.9527L14.344 46.17L15.4058 45.4987L27 38.1682L38.5942 45.4987L39.656 46.17L39.346 44.9527L35.9608 31.6625L46.3413 22.8883L47.2874 22.0886L46.0513 22.0075L32.5369 21.1206L27.4646 8.37345L27 7.20595L26.5354 8.37345L21.4631 21.1206L7.96481 22.0075L6.7303 22.0886L7.67451 22.8881L18.0391 31.6631L14.654 44.9527ZM33.9253 18.7562L34.042 19.0496L34.3571 19.0703L52.7343 20.2793L38.6309 32.2401L38.3926 32.4421L38.4697 32.7448L43.0956 50.9061L27.2672 40.8985L27 40.7295L26.7328 40.8985L10.9044 50.9061L15.5305 32.744L15.6076 32.4413L15.3693 32.2392L1.26578 20.2794L19.6429 19.0704L19.958 19.0497L20.0747 18.7563L27 1.35237L33.9253 18.7562Z" fill="white" stroke="white"/>
</svg>
