<svg width="56" height="56" viewBox="0 0 56 56" fill="none" xmlns="http://www.w3.org/2000/svg">
<g clip-path="url(#clip0)">
<path d="M14.4515 42.4514C12.204 44.137 9.607 44.774 7.96506 45.0148C7.47561 45.0865 7.37181 45.7539 7.81675 45.9703C13.333 48.653 19.2509 48.3316 22.8379 47.7391C24.5972 47.4485 26.1936 48.7972 26.1936 50.5804V42.4514H14.4515Z" fill="#91C84B"/>
<path d="M41.5482 42.4514C43.7958 44.137 46.3928 44.774 48.0347 45.0148C48.5242 45.0865 48.628 45.7539 48.183 45.9703C42.6668 48.653 36.7488 48.3316 33.1619 47.7391C31.4026 47.4485 29.8062 48.7972 29.8062 50.5804V42.4514H41.5482Z" fill="#A0D755"/>
<path d="M37.9355 44.2573C47.9121 44.2573 55.9998 36.1696 55.9998 26.1929C55.9998 16.2162 47.9121 8.12854 37.9355 8.12854C27.9588 8.12854 19.8711 16.2162 19.8711 26.1929C19.8711 36.1696 27.9588 44.2573 37.9355 44.2573Z" fill="#E4EAF8"/>
<path d="M37.9353 8.12897C40.3684 8.12897 42.6856 8.617 44.8041 9.48905C47.5669 12.8731 49.2256 17.1939 49.2256 21.9032C49.2256 32.753 40.4302 41.5484 29.5804 41.5484C29.1798 41.5484 28.783 41.5326 28.3884 41.509C23.28 38.3178 19.8706 32.6606 19.8706 26.1936C19.8707 16.2167 27.9585 8.12897 37.9353 8.12897Z" fill="#D5DCED"/>
<path d="M18.0644 44.2573C28.0411 44.2573 36.1287 36.1696 36.1287 26.1929C36.1287 16.2162 28.0411 8.12854 18.0644 8.12854C8.0877 8.12854 0 16.2162 0 26.1929C0 36.1696 8.0877 44.2573 18.0644 44.2573Z" fill="#D5DCED"/>
<path d="M18.0646 8.12885C15.6316 8.12885 13.3144 8.61688 11.1959 9.48892C8.43309 12.873 6.77441 17.1937 6.77441 21.9031C6.77441 32.7529 15.5698 41.5483 26.4196 41.5483C26.8201 41.5483 27.2169 41.5325 27.6116 41.5089C32.7199 38.3177 36.1292 32.6605 36.1292 26.1934C36.1292 16.2166 28.0415 8.12885 18.0646 8.12885Z" fill="#C7CFE2"/>
<path d="M27.9999 37.9355C37.9766 37.9355 46.0643 29.8478 46.0643 19.8711C46.0643 9.8944 37.9766 1.8067 27.9999 1.8067C18.0232 1.8067 9.93555 9.8944 9.93555 19.8711C9.93555 29.8478 18.0232 37.9355 27.9999 37.9355Z" fill="#E4EAF8"/>
<path d="M37.0323 32.5159C27.0556 32.5159 18.9678 24.428 18.9678 14.4514C18.9678 9.79367 20.7457 5.56163 23.6406 2.35803C15.7739 4.31136 9.93555 11.4001 9.93555 19.8707C9.93555 29.8475 18.0233 37.9352 28 37.9352C33.319 37.9352 38.086 35.6224 41.3919 31.964C39.9931 32.3114 38.5383 32.5159 37.0323 32.5159Z" fill="#D5DCED"/>
<path d="M48.7446 26.8442C48.7796 26.2819 48.1123 25.9633 47.6938 26.3405C46.0217 27.8474 43.5297 29.411 37.0377 30.7094C32.1946 31.678 29.9507 34.7228 28.9094 37.3398C28.764 37.7051 28.3987 37.9353 28.0055 37.9353C27.6123 37.9353 27.247 37.7053 27.1016 37.3398C26.0601 34.7228 23.8163 31.678 18.9733 30.7094C12.4812 29.411 9.98935 27.8474 8.31734 26.3405C7.89876 25.9633 7.23146 26.2819 7.26646 26.8442C7.53618 31.1761 9.51674 43.1853 23.1125 44.9637C24.889 45.1961 26.1992 46.7451 26.1992 48.5367V53.29C26.1992 53.7888 26.6035 54.1932 27.1024 54.1932H28.9088C29.4077 54.1932 29.812 53.7888 29.812 53.29L29.8121 48.5367C29.8121 46.7451 31.1223 45.196 32.8988 44.9637C46.4943 43.1853 48.4749 31.1761 48.7446 26.8442Z" fill="#B4E66E"/>
<path d="M37.0322 36.1288C43.3631 32.9633 47.6131 29.1049 48.5688 26.3752C48.349 26.1491 47.9691 26.0922 47.6935 26.3406C46.0215 27.8474 43.5294 29.411 37.0374 30.7095C32.1943 31.6782 29.9506 34.7229 28.909 37.34C28.7636 37.7053 28.3983 37.9354 28.0051 37.9354C27.6119 37.9354 27.2466 37.7054 27.1012 37.34C26.0598 34.7229 23.8159 31.6782 18.9728 30.7095C12.4809 29.4111 9.98886 27.8475 8.31685 26.3407C7.89827 25.9634 7.23097 26.282 7.26597 26.8443C7.53569 31.1762 9.51636 43.1854 23.112 44.9638C24.8884 45.1961 26.1987 46.7452 26.1987 48.5368V53.2901C26.1987 53.7889 26.603 54.1933 27.1019 54.1933H27.9999C27.9999 54.1933 27.9999 50.5805 27.9999 46.9675C27.9999 41.5482 30.8796 39.2051 37.0322 36.1288Z" fill="#A0D755"/>
<path d="M24.3874 41.5482C21.7843 39.8128 11.6831 40.5688 7.68897 26.2186C7.44189 26.3055 7.2472 26.5353 7.26645 26.8443C7.53617 31.1762 9.51684 43.1853 23.1125 44.9637C24.8888 45.196 26.1992 46.7451 26.1992 48.5367C26.199 46.0643 26.0678 42.6685 24.3874 41.5482Z" fill="#91C84B"/>
</g>
<defs>
<clipPath id="clip0">
<rect width="56" height="56" fill="white"/>
</clipPath>
</defs>
</svg>
