<svg width="56" height="56" viewBox="0 0 56 56" fill="none" xmlns="http://www.w3.org/2000/svg">
<g clip-path="url(#clip0)">
<path d="M43.2493 16.5644C43.2493 24.3319 36.9525 30.6287 29.185 30.6287C21.4174 30.6287 15.1206 24.3319 15.1206 16.5644C15.1206 8.79683 21.4174 2.5 29.185 2.5C36.9525 2.5 43.2493 8.79683 43.2493 16.5644Z" stroke="#A0D755" stroke-width="5"/>
<ellipse cx="28.7902" cy="20.1138" rx="13.0149" ry="13.0149" fill="#B2E56D"/>
<path d="M35.9813 56.0001H20.5685C20.3772 56.0001 20.2222 55.845 20.2222 55.6537V22.3694C20.2222 17.9288 23.822 14.329 28.2626 14.329H28.2872C32.7278 14.329 36.3276 17.9288 36.3276 22.3694V55.6537C36.3276 55.845 36.1726 56.0001 35.9813 56.0001Z" fill="#FDBA91"/>
<path d="M28.2747 14.329C27.8174 14.329 27.3691 14.3676 26.9326 14.4406C30.741 15.0777 33.6432 18.3792 33.6432 22.3571V56.0001H35.9811C36.1724 56.0001 36.3275 55.845 36.3275 55.6537V22.3571C36.3275 17.9234 32.7222 14.329 28.2747 14.329Z" fill="#FC997D"/>
<path d="M28.2751 28.5192C25.5163 28.5192 23.2798 26.2827 23.2798 23.5239V14.1409C23.2798 12.7744 24.3875 11.6667 25.754 11.6667H30.7962C32.1626 11.6667 33.2704 12.7744 33.2704 14.1409V23.5239C33.2704 26.2827 31.0339 28.5192 28.2751 28.5192Z" fill="#FFE4C4"/>
<path d="M32.1391 40.4554C32.0652 40.4321 30.3066 39.8866 28.2747 39.8866C26.2428 39.8866 24.4842 40.4322 24.4103 40.4554C24.0682 40.5629 23.8781 40.9275 23.9856 41.2696C24.0933 41.6117 24.4575 41.8019 24.7999 41.6943C24.8161 41.6892 26.4401 41.1853 28.2747 41.1853C30.1002 41.1853 31.7337 41.6894 31.7495 41.6943C32.0915 41.8019 32.4561 41.612 32.5638 41.2696C32.6714 40.9275 32.4812 40.5629 32.1391 40.4554Z" fill="#EB866C"/>
</g>
<defs>
<clipPath id="clip0">
<rect width="56" height="56" fill="white"/>
</clipPath>
</defs>
</svg>
