<svg width="56" height="56" viewBox="0 0 56 56" fill="none" xmlns="http://www.w3.org/2000/svg">
<path d="M45.8339 28.473C44.9298 27.0601 44.8794 25.2639 45.7185 23.8109L49.1262 17.9084L47.6121 14.1987L43.1862 14.4789L40.9295 18.3878C39.887 20.1938 37.6807 20.9393 35.7393 20.1788C33.357 19.2462 30.7645 18.7339 28.0515 18.7339C26.7838 18.7339 25.541 18.8463 24.334 19.0612C22.9608 19.3055 21.6325 19.6828 20.3644 20.1788C18.4222 20.9393 16.2172 20.1938 15.1747 18.3878L12.918 14.4789L8.98987 15.2044L6.97797 17.9084L10.3857 23.8109C11.2235 25.2639 11.1744 27.0601 10.269 28.473C8.16913 31.7529 6.9502 35.6524 6.9502 39.8364C6.9502 51.49 16.3979 56 28.0515 56C39.7063 56 49.154 51.49 49.154 39.8364C49.154 35.6524 47.9351 31.7529 45.8339 28.473Z" fill="#A6A7B6"/>
<path d="M28.0515 56C16.3979 56 6.9502 51.49 6.9502 39.8364C6.9502 35.6524 8.16913 31.7529 10.269 28.473C11.1744 27.0601 11.2235 25.2639 10.3857 23.8109L6.97797 17.9084L9.02618 13.081L12.918 14.4789L15.1747 18.3878C16.2172 20.1938 18.4222 20.9393 20.3644 20.1788C21.6325 19.6828 22.9595 19.3055 24.3327 19.0612V19.0633C17.7591 21.1175 2.96271 49.126 28.0515 56Z" fill="#727586"/>
<path d="M49.1271 5.96991C46.9686 2.23151 43.1037 0 38.7881 0H17.3177C13.0021 0 9.13554 2.23151 6.97838 5.96863C4.82036 9.70703 4.82036 14.17 6.97838 17.908L12.9188 14.4785C12.0007 12.8883 12.0007 10.9896 12.9188 9.39941C13.8365 7.80792 15.4819 6.85901 17.3177 6.85901H38.7057C40.545 6.85901 42.2736 7.81134 43.1905 9.40625C44.1052 10.9952 44.1039 12.8909 43.1871 14.4785L49.1271 17.908C51.2855 14.17 51.2855 9.70703 49.1271 5.96991Z" fill="#B2E56D"/>
<path d="M23.1969 0.000427246H17.3171C13.0015 0.000427246 9.13538 2.23193 6.97821 5.96906C4.81976 9.70746 4.81976 14.1705 6.97821 17.9089L12.9182 14.4794C12.0001 12.8892 12.0001 10.9901 12.9182 9.39984C13.8364 7.80878 15.4813 6.85986 17.3171 6.85986H23.4208C18.281 5.93359 17.3171 0.000427246 23.1969 0.000427246Z" fill="#A0D755"/>
<path d="M37.4623 38.1757C37.4623 43.3727 33.2497 47.5858 28.0527 47.5858C22.8557 47.5858 18.6426 43.3727 18.6426 38.1757C18.6426 32.9787 22.8557 28.7656 28.0527 28.7656C33.2497 28.7656 37.4623 32.9787 37.4623 38.1757Z" fill="#B9BCCA"/>
<path d="M28.0527 48.4433C22.3913 48.4433 17.7852 43.8372 17.7852 38.1757C17.7852 32.5143 22.3913 27.9081 28.0527 27.9081C33.7137 27.9081 38.3199 32.5143 38.3199 38.1757C38.3199 43.8372 33.7142 48.4433 28.0527 48.4433ZM28.0527 29.6231C23.3368 29.6231 19.5001 33.4598 19.5001 38.1757C19.5001 42.8917 23.3368 46.7283 28.0527 46.7283C32.7683 46.7283 36.6049 42.8917 36.6049 38.1757C36.6054 33.4598 32.7687 29.6231 28.0527 29.6231Z" fill="#727586"/>
<path d="M22.2534 40.6412L22.7154 39.9482C22.8554 40.0929 23.0258 40.2142 23.2264 40.3122C23.4318 40.4055 23.6394 40.4522 23.8494 40.4522C24.1061 40.4522 24.3184 40.3822 24.4864 40.2422C24.6544 40.1022 24.7384 39.9249 24.7384 39.7102C24.7384 39.4582 24.6381 39.2669 24.4374 39.1362C24.2414 39.0055 23.9871 38.9402 23.6744 38.9402H23.3314L23.1354 38.4782L24.0454 37.4002C24.1014 37.3302 24.1574 37.2649 24.2134 37.2042C24.2741 37.1389 24.3208 37.0922 24.3534 37.0642L24.4024 37.0222V37.0082C24.2998 37.0222 24.1528 37.0292 23.9614 37.0292H22.4774V36.2522H25.5084V36.8192L24.2974 38.2262C24.6708 38.2775 24.9881 38.4315 25.2494 38.6882C25.5154 38.9402 25.6484 39.2692 25.6484 39.6752C25.6484 40.1232 25.4898 40.5082 25.1724 40.8302C24.8551 41.1475 24.4304 41.3062 23.8984 41.3062C23.5951 41.3062 23.2964 41.2502 23.0024 41.1382C22.7131 41.0215 22.4634 40.8559 22.2534 40.6412Z" fill="#727586"/>
<path d="M29.0451 41.1102C28.8071 41.2409 28.5248 41.3062 28.1981 41.3062C27.8714 41.3062 27.5868 41.2409 27.3441 41.1102C27.1061 40.9795 26.9194 40.7929 26.7841 40.5502C26.6488 40.3075 26.5484 40.0369 26.4831 39.7382C26.4224 39.4395 26.3921 39.1035 26.3921 38.7302C26.3921 38.3569 26.4224 38.0209 26.4831 37.7222C26.5484 37.4235 26.6488 37.1552 26.7841 36.9172C26.9194 36.6792 27.1061 36.4949 27.3441 36.3642C27.5821 36.2335 27.8668 36.1682 28.1981 36.1682C29.3974 36.1682 29.9971 37.0222 29.9971 38.7302C29.9971 39.1035 29.9644 39.4395 29.8991 39.7382C29.8384 40.0369 29.7404 40.3075 29.6051 40.5502C29.4744 40.7929 29.2878 40.9795 29.0451 41.1102ZM27.3231 38.7302C27.3231 39.8969 27.6148 40.4802 28.1981 40.4802C28.7814 40.4802 29.0731 39.8969 29.0731 38.7302C29.0731 37.5775 28.7814 37.0012 28.1981 37.0012C27.6148 37.0012 27.3231 37.5775 27.3231 38.7302Z" fill="#727586"/>
<path d="M33.4406 41.1102C33.2026 41.2409 32.9203 41.3062 32.5936 41.3062C32.267 41.3062 31.9823 41.2409 31.7396 41.1102C31.5016 40.9795 31.315 40.7929 31.1796 40.5502C31.0443 40.3075 30.944 40.0369 30.8786 39.7382C30.818 39.4395 30.7876 39.1035 30.7876 38.7302C30.7876 38.3569 30.818 38.0209 30.8786 37.7222C30.944 37.4235 31.0443 37.1552 31.1796 36.9172C31.315 36.6792 31.5016 36.4949 31.7396 36.3642C31.9776 36.2335 32.2623 36.1682 32.5936 36.1682C33.793 36.1682 34.3926 37.0222 34.3926 38.7302C34.3926 39.1035 34.36 39.4395 34.2946 39.7382C34.234 40.0369 34.136 40.3075 34.0006 40.5502C33.87 40.7929 33.6833 40.9795 33.4406 41.1102ZM31.7186 38.7302C31.7186 39.8969 32.0103 40.4802 32.5936 40.4802C33.177 40.4802 33.4686 39.8969 33.4686 38.7302C33.4686 37.5775 33.177 37.0012 32.5936 37.0012C32.0103 37.0012 31.7186 37.5775 31.7186 38.7302Z" fill="#727586"/>
</svg>
