<svg width="56" height="56" viewBox="0 0 56 56" fill="none" xmlns="http://www.w3.org/2000/svg">
<g clip-path="url(#clip0)">
<path d="M55.0237 33.4875L38.1052 51.1948C35.0618 54.2382 30.9344 55.9475 26.6313 55.9475H23.4369C15.2231 55.9475 8.56345 49.2885 8.56345 41.0741C8.56345 37.1157 7.52119 33.2283 5.54257 29.8007L0.483353 21.0378C-0.291192 19.6965 -0.107979 18.054 0.84054 16.9217C2.43256 15.0169 5.46617 15.2474 6.72906 17.4321C14.0917 30.185 5.56578 15.4167 13.9337 29.9111C8.16852 8.39593 8.19353 9.02704 8.39669 7.86015C8.39669 7.74319 8.54373 7.16042 8.74712 6.75366C10.4075 3.34302 15.3563 3.87757 16.319 7.4669C16.6196 8.58872 21.3442 26.2231 21.634 27.3049C21.634 2.73536 21.6162 3.97762 21.6667 3.59982C21.9477 1.4941 23.7848 0.065126 25.482 0.065126C27.8321 -0.0494669 29.7468 1.81827 29.7468 4.11588V28.0035C36.5285 4.34799 35.9658 6.00672 36.4669 5.24265C37.522 3.57075 39.9086 2.8691 41.8112 3.93559C43.3199 4.69301 44.2736 6.63782 43.7661 8.53509L37.8596 30.577V35.3692C37.8596 36.976 39.801 37.7805 40.9368 36.6447C46.3899 30.3316 45.9027 30.8796 46.1639 30.6356C48.9857 28.0205 52.8228 27.6359 54.0919 28.2705C56.0973 29.1327 56.706 31.8052 55.0237 33.4875Z" fill="#FC997D"/>
<path d="M55.7818 30.0306L36.4441 50.1018C34.0137 52.2393 31.0063 53.597 27.8131 54.0094C17.748 55.318 10.3661 47.8611 10.3661 39.2712C10.3661 35.3129 9.32382 31.4255 7.3452 27.9979C0.520329 16.3907 0.916502 17.0712 0.840332 16.9217C1.72744 15.8604 3.17152 15.3765 4.56319 15.7588C5.34484 15.9734 5.79262 16.3302 6.30068 16.8383C10.1299 23.252 13.9447 29.9111 13.9334 29.9111C14.8999 29.9111 15.6033 28.9944 15.3532 28.0608C9.97058 7.97339 10.2244 9.22186 10.2613 8.3548C10.2923 7.08628 11.0337 5.73539 12.2433 5.0297C12.7508 4.73166 13.3137 4.57606 13.3599 4.57561C14.7526 4.91476 15.9211 5.9852 16.3188 7.46691C16.8486 9.44451 21.0611 25.1672 21.6338 27.3049C21.6338 1.86323 21.6067 3.93019 21.6969 3.39813C21.8063 2.7891 22.0623 2.21591 22.3561 1.80487C22.7049 1.2959 23.174 0.924857 23.1854 0.924857C25.9354 -1.19607 29.7466 0.815109 29.7466 4.11588V28.0035C36.3257 5.05471 35.9729 6.26193 36.034 6.10351C36.9947 3.36601 40.6621 2.40758 42.8431 4.75026C42.9818 4.90721 43.4653 2.83068 36.0565 30.9151V35.7072C36.0565 37.086 37.5953 38.4171 39.3726 37.7253C40.5667 37.2602 41.2359 36.2982 42.1513 35.2385C46.27 30.4712 45.7777 31.0319 46.0638 30.7311C47.263 29.5712 48.8272 28.6693 50.6201 28.2548C51.3753 28.0819 52.5691 27.929 53.2996 28.0407C54.2915 28.1935 55.109 28.7929 55.5723 29.5956C55.7004 29.8102 55.7764 30.0193 55.7818 30.0306Z" fill="#FDBA91"/>
<path d="M25.2398 51.3277C24.742 51.3277 24.3384 50.9241 24.3384 50.4263C24.3384 43.2259 29.7125 37.0802 36.8391 36.1309C37.3343 36.066 37.7861 36.412 37.8517 36.9054C37.9175 37.3989 37.5707 37.8522 37.0772 37.9179C30.8427 38.7483 26.1411 44.1258 26.1411 50.4263C26.1412 50.9241 25.7376 51.3277 25.2398 51.3277Z" fill="#FC997D"/>
</g>
<defs>
<clipPath id="clip0">
<rect width="56" height="56" fill="white"/>
</clipPath>
</defs>
</svg>
