<svg width="60" height="60" viewBox="0 0 60 60" fill="none" xmlns="http://www.w3.org/2000/svg">
<path d="M44.7656 2.8125H7.73438C7.08717 2.8125 6.5625 3.33717 6.5625 3.98438V56.0156C6.5625 56.6628 7.08717 57.1875 7.73438 57.1875H44.7656C45.4128 57.1875 45.9375 56.6628 45.9375 56.0156V3.98438C45.9375 3.33717 45.4128 2.8125 44.7656 2.8125Z" fill="#25B1FA"/>
<path d="M15 40.3125C17.5888 40.3125 19.6875 38.2138 19.6875 35.625C19.6875 33.0362 17.5888 30.9375 15 30.9375C12.4112 30.9375 10.3125 33.0362 10.3125 35.625C10.3125 38.2138 12.4112 40.3125 15 40.3125Z" fill="#FDC069"/>
<path d="M15 53.4375C17.5888 53.4375 19.6875 51.3388 19.6875 48.75C19.6875 46.1612 17.5888 44.0625 15 44.0625C12.4112 44.0625 10.3125 46.1612 10.3125 48.75C10.3125 51.3388 12.4112 53.4375 15 53.4375Z" fill="#FDC069"/>
<path d="M14.9998 37.5C14.8767 37.5001 14.7547 37.476 14.641 37.4288C14.5272 37.3817 14.4239 37.3126 14.3369 37.2254L12.4619 35.3504L13.7878 34.0245L14.9998 35.2366L19.9619 30.2745L21.2878 31.6004L15.6628 37.2254C15.5758 37.3126 15.4725 37.3817 15.3587 37.4288C15.2449 37.476 15.123 37.5001 14.9998 37.5Z" fill="#EBF9FF"/>
<path d="M14.9998 50.625C14.8767 50.6251 14.7547 50.601 14.641 50.5538C14.5272 50.5067 14.4239 50.4376 14.3369 50.3504L12.4619 48.4754L13.7878 47.1495L14.9998 48.3616L19.9619 43.3995L21.2878 44.7254L15.6628 50.3504C15.5758 50.4376 15.4725 50.5067 15.3587 50.5538C15.2449 50.601 15.123 50.6251 14.9998 50.625Z" fill="#EBF9FF"/>
<path d="M25.3125 31.875H30.9375V33.75H25.3125V31.875Z" fill="#EBF9FF"/>
<path d="M32.8125 31.875H43.125V33.75H32.8125V31.875Z" fill="#EBF9FF"/>
<path d="M25.3125 39.375H30.9375V41.25H25.3125V39.375Z" fill="#EBF9FF"/>
<path d="M32.8125 39.375H43.125V41.25H32.8125V39.375Z" fill="#EBF9FF"/>
<path d="M37.5 35.625H43.125V37.5H37.5V35.625Z" fill="#EBF9FF"/>
<path d="M25.3125 35.625H35.625V37.5H25.3125V35.625Z" fill="#EBF9FF"/>
<path d="M25.3125 45H30.9375V46.875H25.3125V45Z" fill="#EBF9FF"/>
<path d="M32.8125 45H43.125V46.875H32.8125V45Z" fill="#EBF9FF"/>
<path d="M25.3125 52.5H30.9375V54.375H25.3125V52.5Z" fill="#EBF9FF"/>
<path d="M32.8125 52.5H43.125V54.375H32.8125V52.5Z" fill="#EBF9FF"/>
<path d="M37.5 48.75H43.125V50.625H37.5V48.75Z" fill="#EBF9FF"/>
<path d="M25.3125 48.75H35.625V50.625H25.3125V48.75Z" fill="#EBF9FF"/>
<path d="M14.0625 7.5H38.4375V9.375H14.0625V7.5Z" fill="#EBF9FF"/>
<path d="M14.0625 24.375H38.4375V26.25H14.0625V24.375Z" fill="#EBF9FF"/>
<path d="M11.25 10.3125H13.125V23.4375H11.25V10.3125Z" fill="#EBF9FF"/>
<path d="M39.375 10.3125H41.25V23.4375H39.375V10.3125Z" fill="#EBF9FF"/>
<path d="M28.125 11.25H18.75C18.5014 11.25 18.2629 11.3488 18.0871 11.5246C17.9113 11.7004 17.8125 11.9389 17.8125 12.1875V15H19.6875V13.125H22.5V20.625H21.5625V22.5H25.3125V20.625H24.375V13.125H27.1875V15H29.0625V12.1875C29.0625 11.9389 28.9637 11.7004 28.7879 11.5246C28.6121 11.3488 28.3736 11.25 28.125 11.25Z" fill="#EBF9FF"/>
<path d="M32.1094 20.625C32.0472 20.625 31.9876 20.6003 31.9436 20.5564C31.8997 20.5124 31.875 20.4528 31.875 20.3906V18.75H33.75V16.875H31.875V15H30V16.875H28.125V18.75H30V20.3906C30.0007 20.9499 30.2231 21.486 30.6185 21.8815C31.014 22.2769 31.5501 22.4993 32.1094 22.5H34.6875V20.625H32.1094Z" fill="#EBF9FF"/>
<path d="M41.9531 5.625H38.6719C38.0247 5.625 37.5 6.14967 37.5 6.79688V10.0781C37.5 10.7253 38.0247 11.25 38.6719 11.25H41.9531C42.6003 11.25 43.125 10.7253 43.125 10.0781V6.79688C43.125 6.14967 42.6003 5.625 41.9531 5.625Z" fill="#FDC069"/>
<path d="M41.9531 22.5H38.6719C38.0247 22.5 37.5 23.0247 37.5 23.6719V26.9531C37.5 27.6003 38.0247 28.125 38.6719 28.125H41.9531C42.6003 28.125 43.125 27.6003 43.125 26.9531V23.6719C43.125 23.0247 42.6003 22.5 41.9531 22.5Z" fill="#FDC069"/>
<path d="M13.8281 22.5H10.5469C9.89967 22.5 9.375 23.0247 9.375 23.6719V26.9531C9.375 27.6003 9.89967 28.125 10.5469 28.125H13.8281C14.4753 28.125 15 27.6003 15 26.9531V23.6719C15 23.0247 14.4753 22.5 13.8281 22.5Z" fill="#FDC069"/>
<path d="M13.8281 5.625H10.5469C9.89967 5.625 9.375 6.14967 9.375 6.79688V10.0781C9.375 10.7253 9.89967 11.25 10.5469 11.25H13.8281C14.4753 11.25 15 10.7253 15 10.0781V6.79688C15 6.14967 14.4753 5.625 13.8281 5.625Z" fill="#FDC069"/>
<path d="M49.6875 10.3125L51.5625 6.5625L53.4375 10.3125V51.5625C53.4375 52.0598 53.24 52.5367 52.8883 52.8883C52.5367 53.24 52.0598 53.4375 51.5625 53.4375C51.0652 53.4375 50.5883 53.24 50.2367 52.8883C49.885 52.5367 49.6875 52.0598 49.6875 51.5625V10.3125Z" fill="#FDC069"/>
<path d="M49.6875 43.125H53.4375V46.875H49.6875V43.125Z" fill="#FFFDFB"/>
</svg>
