<svg width="60" height="60" viewBox="0 0 60 60" fill="none" xmlns="http://www.w3.org/2000/svg">
<g clip-path="url(#clip0)">
<path d="M57.2727 38.1818H2.7273C1.2273 38.1818 0 36.9545 0 35.4545V5.45449C0 3.95449 1.2273 2.72719 2.7273 2.72719H57.2728C58.7728 2.72719 60.0001 3.95449 60.0001 5.45449V35.4545C60 36.9545 58.7727 38.1818 57.2727 38.1818Z" fill="#0E9347"/>
<path d="M50.4543 27.2727C47.3179 27.2727 44.4543 28.7727 42.8179 31.2272C41.4543 30.5455 39.9543 30 38.1816 30C33.4089 30 29.4543 33.5455 28.7725 38.1818H57.2725C58.6361 38.1818 59.727 37.2273 59.9998 35.8636C59.4543 31.0909 55.3634 27.2727 50.4543 27.2727Z" fill="#0D8944"/>
<path d="M51.8175 35.4545H8.18105C8.18105 32.4545 5.72656 30 2.72656 30V10.9091C5.72656 10.9091 8.18105 8.45461 8.18105 5.45461H51.8175C51.8175 8.45461 54.2719 10.9091 57.2719 10.9091V30C54.2719 30 51.8175 32.4545 51.8175 35.4545Z" fill="#3BB54A"/>
<path d="M50.4544 27.2727C47.318 27.2727 44.4544 28.7727 42.818 31.2272C41.4544 30.5455 39.9544 30 38.1817 30C34.3635 30 31.0908 32.1818 29.5908 35.4545H51.8181C51.8181 32.4545 54.1363 30.1363 57.1363 30C55.3635 28.3636 53.0454 27.2727 50.4544 27.2727Z" fill="#0E9347"/>
<path d="M29.9999 32.7272C36.0249 32.7272 40.909 27.2325 40.909 20.4545C40.909 13.6765 36.0249 8.18181 29.9999 8.18181C23.975 8.18181 19.0908 13.6765 19.0908 20.4545C19.0908 27.2325 23.975 32.7272 29.9999 32.7272Z" fill="#0E9347"/>
<path d="M13.6365 23.1818C15.1427 23.1818 16.3638 21.9608 16.3638 20.4545C16.3638 18.9483 15.1427 17.7272 13.6365 17.7272C12.1302 17.7272 10.9092 18.9483 10.9092 20.4545C10.9092 21.9608 12.1302 23.1818 13.6365 23.1818Z" fill="#0E9347"/>
<path d="M46.363 23.1818C47.8693 23.1818 49.0904 21.9608 49.0904 20.4545C49.0904 18.9483 47.8693 17.7272 46.363 17.7272C44.8568 17.7272 43.6357 18.9483 43.6357 20.4545C43.6357 21.9608 44.8568 23.1818 46.363 23.1818Z" fill="#0E9347"/>
<path d="M31.364 19.0909H28.6367C27.8185 19.0909 27.2731 18.5454 27.2731 17.7273C27.2731 16.9091 27.8186 16.3637 28.6367 16.3637H32.7276C33.5458 16.3637 34.0912 15.8182 34.0912 15.0001C34.0912 14.1819 33.5457 13.6365 32.7276 13.6365H31.364C31.364 12.8183 30.8185 12.2729 30.0004 12.2729C29.1822 12.2729 28.6368 12.8184 28.6368 13.6365C26.3186 13.6365 24.5459 15.4092 24.5459 17.7274C24.5459 20.0456 26.3186 21.8183 28.6368 21.8183H31.3641C32.1823 21.8183 32.7277 22.3638 32.7277 23.1819C32.7277 24.0001 32.1822 24.5455 31.3641 24.5455H27.2732C26.455 24.5455 25.9096 25.091 25.9096 25.9091C25.9096 26.7273 26.4551 27.2727 27.2732 27.2727H28.6368C28.6368 28.0909 29.1823 28.6363 30.0004 28.6363C30.8186 28.6363 31.364 28.0908 31.364 27.2727C33.6822 27.2727 35.4549 25.5 35.4549 23.1818C35.4549 20.8636 33.6822 19.0909 31.364 19.0909Z" fill="#89C763"/>
<path d="M35.4547 49.091C40.7265 49.091 45.0002 44.8173 45.0002 39.5455C45.0002 34.2737 40.7265 30 35.4547 30C30.1829 30 25.9092 34.2737 25.9092 39.5455C25.9092 44.8173 30.1829 49.091 35.4547 49.091Z" fill="#FFCA5D"/>
<path d="M47.7272 46.3637C52.999 46.3637 57.2727 42.09 57.2727 36.8182C57.2727 31.5464 52.999 27.2727 47.7272 27.2727C42.4553 27.2727 38.1816 31.5464 38.1816 36.8182C38.1816 42.09 42.4553 46.3637 47.7272 46.3637Z" fill="#F6B545"/>
<path d="M47.7272 27.2727C42.4089 27.2727 38.1816 31.5 38.1816 36.8182C38.1816 42.1364 42.4089 46.3637 47.7272 46.3637C53.0454 46.3637 57.2727 42.1364 57.2727 36.8182C57.2727 31.5 53.0454 27.2727 47.7272 27.2727ZM47.7272 43.6364C43.9089 43.6364 40.9089 40.6364 40.9089 36.8182C40.9089 33 43.9089 30 47.7272 30C51.5454 30 54.5454 33 54.5454 36.8182C54.5454 40.6364 51.5454 43.6364 47.7272 43.6364Z" fill="#FFCB5B"/>
<path d="M47.7266 46.2273C53.0448 46.3637 57.2721 42 57.2721 36.8182H57.1357C56.4539 36.8182 55.9084 37.3637 55.7721 38.0455C55.4994 39.9546 54.5448 41.7273 53.1812 42.9546C52.0903 44.0455 50.5903 44.7273 48.9539 45C48.272 45 47.7266 45.5455 47.7266 46.2273Z" fill="#F6B545"/>
<path d="M47.7271 27.4091C42.4089 27.2727 38.1816 31.6364 38.1816 36.8182H38.318C38.9998 36.8182 39.5454 36.2727 39.6816 35.5909C39.9543 33.6818 40.9089 31.9091 42.2725 30.6818C43.3634 29.5909 44.8634 28.9091 46.4998 28.6363C47.1816 28.6364 47.7271 28.0909 47.7271 27.4091Z" fill="#FFE27A"/>
<path d="M41.8637 37.7727C41.8637 33.9545 44.8637 30.9545 48.6819 30.9545C50.3183 30.9545 51.8183 31.5 53.0455 32.5909C51.6819 30.9545 49.9092 30 47.7274 30C43.9092 30 40.9092 33 40.9092 36.8182C40.9092 39 41.8637 40.7727 43.3637 42C42.4092 40.9091 41.8637 39.4091 41.8637 37.7727Z" fill="#F19920"/>
<path d="M51.8187 41.0455C51.6823 41.0455 51.546 41.0455 51.4096 40.9091C51.1369 40.6364 51.1369 40.2273 51.4096 39.9546C52.2278 39.1364 52.6369 37.9091 52.6369 36.8182C52.6369 36.4091 52.9096 36.1364 53.3187 36.1364C53.7278 36.1364 54.0005 36.4091 54.0005 36.8182C54.0005 38.3182 53.455 39.8182 52.5005 40.9091C52.2278 41.0455 51.955 41.0455 51.8187 41.0455Z" fill="#FFCB5B"/>
<path d="M47.7269 40.9091C46.9087 40.9091 46.3633 40.3636 46.3633 39.5455V34.091C46.3633 33.2728 46.9088 32.7274 47.7269 32.7274C48.545 32.7274 49.0905 33.2729 49.0905 34.091V39.5455C49.0905 40.3636 48.5451 40.9091 47.7269 40.9091Z" fill="#F19920"/>
<path d="M52.772 44.8636C51.8175 41.4545 49.3629 38.7272 46.2265 37.5C45.681 34.3636 43.6356 31.6364 41.0447 30C39.4083 31.7727 38.3174 34.0909 38.3174 36.6818C38.3174 42 42.5447 46.2273 47.8629 46.2273C49.6357 46.3636 51.272 45.8182 52.772 44.8636Z" fill="#F19920"/>
<path d="M43.3638 42C42.4093 40.7727 41.7274 39.2727 41.7274 37.6364C41.7274 35.7273 42.5456 33.9546 43.9092 32.7273C43.6365 32.3182 43.3637 32.0455 43.091 31.7728C41.7274 33.0001 40.9092 34.7728 40.9092 36.8183C40.9093 39 41.8638 40.7727 43.3638 42Z" fill="#E78825"/>
<path d="M46.3643 37.6364V39.5455C46.3643 40.3637 46.9098 40.9091 47.7279 40.9091C48.5459 40.9091 49.0914 40.3636 49.0914 39.5455V39.2728C48.2734 38.5909 47.3189 38.0455 46.3643 37.6364Z" fill="#E78825"/>
<path d="M52.7725 44.8636C52.4998 43.9091 52.227 43.0909 51.6816 42.2727C50.5907 43.0909 49.2272 43.6363 47.7272 43.6363C43.9089 43.6363 40.9089 40.6363 40.9089 36.8181C40.9089 34.7726 41.7272 32.9999 43.0907 31.7726C42.4089 31.0908 41.7271 30.5453 40.9089 30.1362C39.2725 31.9089 38.1816 34.2271 38.1816 36.818C38.1816 42.1362 42.4089 46.3635 47.7272 46.3635C49.6363 46.3636 51.2725 45.8182 52.7725 44.8636Z" fill="#F6B545"/>
<path d="M52.363 43.6364C51.4085 44.3182 50.1812 44.7273 48.9539 45C48.2721 45.1364 47.7266 45.6818 47.7266 46.3636C49.6357 46.3636 51.2721 45.8181 52.7721 44.8636C52.6358 44.4545 52.4994 44.0455 52.363 43.6364Z" fill="#F19920"/>
<path d="M40.9089 30.1364C39.2725 31.9091 38.1816 34.2273 38.1816 36.8182H38.318C38.9998 36.8182 39.5454 36.2727 39.6816 35.5909C39.9543 33.6818 40.9089 32.0454 42.1361 30.8182C41.7271 30.6818 41.318 30.4091 40.9089 30.1364Z" fill="#FFCB5B"/>
<path d="M35.4547 49.091C40.7265 49.091 45.0002 44.8173 45.0002 39.5455C45.0002 34.2737 40.7265 30 35.4547 30C30.1829 30 25.9092 34.2737 25.9092 39.5455C25.9092 44.8173 30.1829 49.091 35.4547 49.091Z" fill="#F6B545"/>
<path d="M34.0908 46.3636C34.0908 47.3181 34.2272 48.1363 34.4999 49.0909C34.7726 49.0909 35.1817 49.0909 35.4544 49.0909C40.7726 49.0909 44.9999 44.8636 44.9999 39.5454C44.9999 38.5909 44.8635 37.7727 44.5908 36.8181C44.3181 36.8181 43.909 36.8181 43.6363 36.8181C38.3181 36.8182 34.0908 41.0455 34.0908 46.3636Z" fill="#F19920"/>
<path d="M35.4547 30C30.1365 30 25.9092 34.2273 25.9092 39.5455C25.9092 44.8637 30.1365 49.091 35.4547 49.091C40.7729 49.091 45.0002 44.8636 45.0002 39.5455C45.0002 34.2274 40.7729 30 35.4547 30ZM35.4547 46.3636C31.6365 46.3636 28.6365 43.3636 28.6365 39.5454C28.6365 35.7272 31.6365 32.7272 35.4547 32.7272C39.2729 32.7272 42.2729 35.7272 42.2729 39.5454C42.2729 43.3636 39.2729 46.3636 35.4547 46.3636Z" fill="#FFCB5B"/>
<path d="M35.4551 48.9545C40.7733 49.0909 45.0006 44.7273 45.0006 39.5455H44.8642C44.1824 39.5455 43.6369 40.091 43.5006 40.7728C43.2279 42.6819 42.2733 44.4546 40.9097 45.6819C39.8188 46.7728 38.3188 47.4546 36.6824 47.7274C36.0006 47.7273 35.4551 48.2727 35.4551 48.9545Z" fill="#F6B545"/>
<path d="M35.4547 30.1364C30.1365 30 25.9092 34.3637 25.9092 39.5455H26.0456C26.7274 39.5455 27.2729 39 27.4092 38.3182C27.6819 36.4091 28.6365 34.6364 30.0001 33.4091C31.091 32.3182 32.591 31.6364 34.2274 31.3636C34.9093 31.3636 35.4547 30.8182 35.4547 30.1364Z" fill="#FFE27A"/>
<path d="M29.5904 40.5C29.5904 36.6818 32.5904 33.6818 36.4086 33.6818C38.045 33.6818 39.545 34.2273 40.7722 35.3182C39.4086 33.6818 37.6357 32.7273 35.4539 32.7273C31.6357 32.7273 28.6357 35.7273 28.6357 39.5455C28.6357 41.7273 29.5902 43.5 31.0902 44.7273C30.1359 43.6364 29.5904 42.1364 29.5904 40.5Z" fill="#F19920"/>
<path d="M39.5453 43.7727C39.4089 43.7727 39.2726 43.7727 39.1362 43.6363C38.8635 43.3636 38.8635 42.9545 39.1362 42.6818C39.9544 41.8636 40.3635 40.6363 40.3635 39.5454C40.3635 39.1363 40.6362 38.8636 41.0453 38.8636C41.4544 38.8636 41.7271 39.1363 41.7271 39.5454C41.7271 41.0454 41.1816 42.5454 40.2271 43.6363C39.9543 43.7727 39.6816 43.7727 39.5453 43.7727Z" fill="#FFCB5B"/>
<path d="M35.4544 43.6364C34.6362 43.6364 34.0908 43.0909 34.0908 42.2728V36.8183C34.0908 36.0001 34.6363 35.4547 35.4544 35.4547C36.2726 35.4547 36.818 36.0002 36.818 36.8183V42.2728C36.8181 43.0909 36.2726 43.6364 35.4544 43.6364Z" fill="#F19920"/>
<path d="M41.7271 36.9545C41.9998 37.7727 42.2726 38.5909 42.2726 39.5454C42.2726 43.3636 39.2726 46.3636 35.4544 46.3636C35.0453 46.3636 34.4999 46.3636 34.0908 46.2272V46.3636C34.0908 47.3181 34.2272 48.1363 34.4999 49.0909C34.7726 49.0909 35.1817 49.0909 35.4544 49.0909C40.7726 49.0909 44.9999 44.8636 44.9999 39.5454C44.9999 38.5909 44.8635 37.7727 44.5908 36.8181C44.3181 36.8181 43.909 36.8181 43.6363 36.8181C42.9543 36.8182 42.4089 36.8182 41.7271 36.9545Z" fill="#F6B545"/>
<path d="M42.2721 57.2728C47.5439 57.2728 51.8176 52.9991 51.8176 47.7273C51.8176 42.4555 47.5439 38.1818 42.2721 38.1818C37.0002 38.1818 32.7266 42.4555 32.7266 47.7273C32.7266 52.9991 37.0002 57.2728 42.2721 57.2728Z" fill="#F6B545"/>
<path d="M42.2721 38.1818C36.9539 38.1818 32.7266 42.4091 32.7266 47.7273C32.7266 53.0455 36.9539 57.2728 42.2721 57.2728C47.5903 57.2728 51.8176 53.0455 51.8176 47.7273C51.8176 42.4091 47.5903 38.1818 42.2721 38.1818ZM42.2721 54.5455C38.4539 54.5455 35.4539 51.5455 35.4539 47.7273C35.4539 43.9091 38.4539 40.9091 42.2721 40.9091C46.0903 40.9091 49.0903 43.9091 49.0903 47.7273C49.0903 51.5455 46.0903 54.5455 42.2721 54.5455Z" fill="#FFCB5B"/>
<path d="M42.2734 57.1364C47.5916 57.2728 51.8189 52.9091 51.8189 47.7273H51.6825C51.0007 47.7273 50.4552 48.2728 50.3189 48.9546C50.0462 50.8637 49.0916 52.6364 47.728 53.8637C46.6372 54.9546 45.1372 55.6364 43.5007 55.9092C42.8189 55.9091 42.2734 56.4545 42.2734 57.1364Z" fill="#F6B545"/>
<path d="M42.2721 38.3182C36.9539 38.1818 32.7266 42.5455 32.7266 47.7273H32.863C33.5448 47.7273 34.0903 47.1818 34.2266 46.5C34.4993 44.5909 35.4539 42.8182 36.8175 41.5909C37.9084 40.5 39.4084 39.8182 41.0448 39.5454C41.7267 39.5455 42.2721 39 42.2721 38.3182Z" fill="#FFE27A"/>
<path d="M36.4097 48.6818C36.4097 44.8636 39.4097 41.8636 43.2279 41.8636C44.8643 41.8636 46.3643 42.4091 47.5915 43.5C46.2279 41.8636 44.4551 40.9091 42.2733 40.9091C38.4551 40.9091 35.4551 43.9091 35.4551 47.7273C35.4551 49.9091 36.4096 51.6818 37.9096 52.9091C36.9551 51.8182 36.4097 50.3182 36.4097 48.6818Z" fill="#F19920"/>
<path d="M46.3636 51.9545C46.2272 51.9545 46.0909 51.9545 45.9545 51.8181C45.6818 51.5454 45.6818 51.1363 45.9545 50.8636C46.7727 50.0454 47.1818 48.8181 47.1818 47.7272C47.1818 47.3181 47.4545 47.0454 47.8636 47.0454C48.2727 47.0454 48.5454 47.3181 48.5454 47.7272C48.5454 49.2272 47.9999 50.7272 47.0454 51.8181C46.7727 51.9545 46.5 51.9545 46.3636 51.9545Z" fill="#FFCB5B"/>
<path d="M42.2728 51.8182C41.4546 51.8182 40.9092 51.2727 40.9092 50.4546V45C40.9092 44.1818 41.4547 43.6364 42.2728 43.6364C43.091 43.6364 43.6364 44.1819 43.6364 45V50.4545C43.6365 51.2727 43.091 51.8182 42.2728 51.8182Z" fill="#F19920"/>
</g>
<defs>
<clipPath id="clip0">
<rect width="60" height="60" fill="white"/>
</clipPath>
</defs>
</svg>
