<svg width="60" height="60" viewBox="0 0 60 60" fill="none" xmlns="http://www.w3.org/2000/svg">
<g clip-path="url(#clip0)">
<path d="M58.8204 14.2781H55.0887L54.5723 15.5153V19.049L54.9826 20.0258H58.9619L59.3021 19.049V15.5153L58.8204 14.2781Z" fill="#FEE97D"/>
<path d="M11.0824 58.4648C11.0824 58.9535 10.6863 59.3496 10.1976 59.3496H1.58309C1.0944 59.3496 0.698242 58.9535 0.698242 58.4648V1.49847C0.698242 1.00977 1.0944 0.613617 1.58309 0.613617H10.1976C10.6863 0.613617 11.0824 1.00977 11.0824 1.49847V58.4648Z" fill="#89C763"/>
<path d="M10.3823 55.5983C7.34483 55.5983 4.88245 53.1359 4.88245 50.0985V0.613724H1.58309C1.0944 0.613724 0.698242 1.00988 0.698242 1.49857V58.4648C0.698242 58.9534 1.0944 59.3496 1.58309 59.3496H10.1976C10.6863 59.3496 11.0824 58.9534 11.0824 58.4648V55.5983H10.3823Z" fill="#3BB54A"/>
<path d="M30.0742 13.1256C29.8236 13.1256 29.5742 13.2497 29.4324 13.4991L23.0989 24.651C22.9937 24.8353 22.8141 24.9653 22.6049 25.0091L10.0418 27.5867C9.48164 27.7025 9.25946 28.3844 9.64592 28.8063L18.2935 38.2777C18.4377 38.4348 18.5062 38.6452 18.4826 38.8568L17.0526 51.6018C16.9887 52.1703 17.569 52.5922 18.0902 52.3558L29.7692 47.0576C29.8661 47.0139 29.9701 46.9914 30.0742 46.9914L32.8405 42.7012V19.0593L30.0742 13.1256Z" fill="#FFE27A"/>
<path d="M29.9815 41.7989C27.9145 41.7989 25.8893 41.0934 24.2643 39.7781C23.8838 39.4701 23.825 38.912 24.133 38.5315C24.441 38.1511 24.9993 38.0922 25.3796 38.4002C26.9651 39.6836 29.1165 40.257 31.1338 39.9346C31.6174 39.8568 32.0718 40.1866 32.149 40.67C32.2263 41.1533 31.897 41.6079 31.4136 41.6852C30.937 41.7613 30.458 41.7989 29.9815 41.7989Z" fill="#B77159"/>
<path d="M30.1123 13.1256V46.9914C30.2163 46.9914 30.3203 47.0139 30.4172 47.0576L42.0962 52.3558C42.6174 52.5922 43.1977 52.1703 43.1339 51.6018L41.7039 38.8568C41.6802 38.6452 41.7488 38.4348 41.8929 38.2777L50.5405 28.8063C50.927 28.3844 50.7048 27.7025 50.1446 27.5867L37.5816 25.0091C37.3724 24.9653 37.1927 24.8353 37.0876 24.651L30.754 13.4991C30.6122 13.2497 30.3629 13.1256 30.1123 13.1256Z" fill="#FFE27A"/>
<path d="M34.3921 40.5078C34.1001 40.5078 33.8142 40.3636 33.645 40.0994C33.381 39.6871 33.501 39.139 33.9133 38.8748C34.1499 38.7232 34.3723 38.5635 34.5743 38.4001C34.9547 38.0921 35.5129 38.1508 35.8209 38.5314C36.1289 38.912 36.07 39.47 35.6896 39.778C35.437 39.9825 35.1611 40.1809 34.8696 40.3676C34.7214 40.4625 34.5558 40.5078 34.3921 40.5078Z" fill="#D0A281"/>
<path d="M26.0489 31.0294C25.5651 31.0294 25.1696 30.6407 25.1628 30.1553L25.1358 28.2243C25.129 27.7348 25.5203 27.3325 26.0098 27.3256H26.0223C26.5061 27.3256 26.9016 27.7143 26.9085 28.1997L26.9354 30.1307C26.9423 30.6202 26.5511 31.0225 26.0615 31.0294C26.0573 31.0294 26.0531 31.0294 26.0489 31.0294Z" fill="#B77159"/>
<path d="M34.152 31.0294C33.6625 31.0294 33.2656 30.6325 33.2656 30.143V28.2119C33.2656 27.7223 33.6625 27.3255 34.152 27.3255C34.6415 27.3255 35.0384 27.7223 35.0384 28.2119V30.1429C35.0384 30.6325 34.6415 31.0294 34.152 31.0294Z" fill="#D0A281"/>
<path d="M42.3622 53.3078C42.1345 53.3078 41.906 53.2602 41.6922 53.1631L40.1425 52.4601C39.6967 52.2578 39.4992 51.7324 39.7015 51.2866C39.9038 50.8408 40.4295 50.6433 40.875 50.8457L42.186 51.4405L41.8981 48.8745C41.8435 48.388 42.1936 47.9493 42.6801 47.8947C43.1663 47.8407 43.6053 48.1902 43.6599 48.6767L43.9771 51.5034C44.0421 52.0827 43.7895 52.6555 43.3179 52.9982C43.0357 53.2027 42.7 53.3078 42.3622 53.3078Z" fill="#E18383"/>
<path d="M49.4887 30.8032C49.2753 30.8032 49.0612 30.7266 48.8913 30.5714C48.5298 30.2413 48.5043 29.6807 48.8344 29.3191L49.6714 28.4026L47.6381 27.9853C47.1585 27.8869 46.8495 27.4184 46.948 26.9389C47.0464 26.4593 47.5149 26.1504 47.9944 26.2488L50.2846 26.7188C50.8557 26.8361 51.3223 27.2533 51.5024 27.8078C51.6826 28.3622 51.5503 28.9742 51.1571 29.4046L50.1434 30.5147C49.9685 30.706 49.7291 30.8032 49.4887 30.8032Z" fill="#E18383"/>
<path d="M38.6545 26.1231C38.5954 26.1231 38.5355 26.1172 38.4754 26.1048L37.3647 25.8768C36.9062 25.7828 36.5105 25.4954 36.2791 25.0882L35.7623 24.1786C35.5205 23.7529 35.6695 23.2118 36.0952 22.97C36.5211 22.7285 37.062 22.8772 37.3038 23.3029L37.7871 24.1539L38.8316 24.3683C39.3112 24.4667 39.6201 24.9352 39.5217 25.4147C39.4359 25.8341 39.0666 26.1231 38.6545 26.1231Z" fill="#E18383"/>
<path d="M44.2243 27.2662C44.1652 27.2662 44.1052 27.2602 44.0451 27.2478L42.0677 26.842C41.5881 26.7435 41.2792 26.2751 41.3777 25.7956C41.4761 25.3161 41.9449 25.0073 42.4241 25.1055L44.4014 25.5114C44.881 25.6098 45.19 26.0783 45.0915 26.5578C45.0056 26.9773 44.6364 27.2662 44.2243 27.2662Z" fill="#E18383"/>
<path d="M45.5337 35.1345C45.3202 35.1345 45.1062 35.058 44.9361 34.9027C44.5746 34.5726 44.5492 34.0119 44.8794 33.6504L46.3639 32.0247C46.694 31.6632 47.2547 31.6379 47.6162 31.968C47.9777 32.2981 48.0031 32.8588 47.6729 33.2203L46.1884 34.8459C46.0136 35.0373 45.7741 35.1345 45.5337 35.1345Z" fill="#E18383"/>
<path d="M41.8108 41.049C41.3654 41.049 40.9818 40.7143 40.931 40.2613L40.7846 38.9556C40.7323 38.4904 40.8834 38.0253 41.199 37.6796L42.4078 36.356C42.738 35.9944 43.2987 35.9692 43.6601 36.2992C44.0216 36.6293 44.047 37.19 43.7168 37.5515L42.5538 38.8251L42.6926 40.0638C42.7472 40.5502 42.3971 40.9889 41.9106 41.0434C41.8772 41.0471 41.8438 41.049 41.8108 41.049Z" fill="#E18383"/>
<path d="M42.3697 46.0209C41.9244 46.0209 41.5408 45.6862 41.49 45.2333L41.3406 43.9024C41.286 43.416 41.636 42.9773 42.1226 42.9227C42.609 42.8681 43.0477 43.2181 43.1024 43.7047L43.2517 45.0356C43.3063 45.522 42.9563 45.9607 42.4697 46.0153C42.436 46.0191 42.4027 46.0209 42.3697 46.0209Z" fill="#E18383"/>
<path d="M37.1492 51.0155C37.0266 51.0155 36.9023 50.99 36.7835 50.9361L35.4159 50.3156C34.9701 50.1134 34.7726 49.588 34.975 49.1421C35.1772 48.6963 35.7027 48.499 36.1484 48.7012L37.516 49.3217C37.9618 49.5239 38.1593 50.0492 37.957 50.4951C37.8085 50.822 37.4863 51.0155 37.1492 51.0155Z" fill="#E18383"/>
<path d="M31.1345 39.9346C30.7646 39.9937 30.3901 40.0221 30.0156 40.0221V41.7981C30.4812 41.7965 30.9488 41.7595 31.4143 41.685C31.8977 41.6077 32.227 41.1532 32.1497 40.6698C32.0724 40.1866 31.6181 39.8568 31.1345 39.9346Z" fill="#D0A281"/>
<path d="M30.23 13.4598L30.0741 13.1256C29.8236 13.1256 29.5742 13.2497 29.4324 13.4991L23.0989 24.651C22.9937 24.8353 22.8141 24.9653 22.6049 25.0091L10.0418 27.5867C9.48164 27.7025 9.25946 28.3844 9.64592 28.8063L18.2935 38.2777C18.4377 38.4348 18.5062 38.6452 18.4826 38.8568L17.0526 51.6018C16.9887 52.1703 17.569 52.5922 18.0902 52.3558L21.0486 51.0137L22.4727 37.9815C22.4964 37.7643 22.4278 37.5482 22.2836 37.3869L17.6049 32.1088C16.4737 30.8325 17.1705 28.81 18.8478 28.5014L25.0009 27.3693C25.2342 27.3256 25.4346 27.1956 25.5519 27.0112L30.2299 19.6253V13.4598H30.23Z" fill="#FFCB5B"/>
<path d="M32.7891 47.1768L30.9611 46.348V15.7252L31.5802 16.8156C31.7434 17.1031 32.0431 17.2645 32.3518 17.2645C32.5001 17.2645 32.6505 17.2273 32.7886 17.1488C33.2143 16.9071 33.3636 16.3661 33.1219 15.9404L30.9612 12.546V0.886385C30.9612 0.396864 30.5644 0 30.0749 0C29.5853 0 29.1885 0.396864 29.1885 0.886385V59.1136C29.1885 59.6031 29.5853 60 30.0749 60C30.5644 60 30.9612 59.6031 30.9612 59.1136V48.2945L32.0572 48.7915C32.1759 48.8454 32.3003 48.8708 32.4227 48.8708C32.7599 48.8708 33.0822 48.6773 33.2305 48.3502C33.4325 47.9043 33.2349 47.3791 32.7891 47.1768Z" fill="#E18383"/>
<path d="M34.7216 21.4361C34.4131 21.4361 34.1134 21.2748 33.9501 20.9873L33.3932 20.007C33.1514 19.5813 33.3004 19.0403 33.7261 18.7984C34.1517 18.5568 34.6927 18.7057 34.9347 19.1314L35.4915 20.1117C35.7333 20.5374 35.5843 21.0785 35.1586 21.3203C35.0203 21.3987 34.8699 21.4361 34.7216 21.4361Z" fill="#E18383"/>
<path d="M3.11524 5.52206H0.698242V7.29483H3.11524C3.60476 7.29483 4.00162 6.89797 4.00162 6.40845C4.00162 5.91893 3.60476 5.52206 3.11524 5.52206Z" fill="#0E9347"/>
<path d="M3.11524 10.8333H0.698242V12.6061H3.11524C3.60476 12.6061 4.00162 12.2092 4.00162 11.7197C4.00162 11.2301 3.60476 10.8333 3.11524 10.8333Z" fill="#0E9347"/>
<path d="M3.11524 16.1446H0.698242V17.9174H3.11524C3.60476 17.9174 4.00162 17.5205 4.00162 17.031C4.00162 16.5415 3.60476 16.1446 3.11524 16.1446Z" fill="#0E9347"/>
<path d="M3.11524 21.456H0.698242V23.2287H3.11524C3.60476 23.2287 4.00162 22.8319 4.00162 22.3424C4.00162 21.8528 3.60476 21.456 3.11524 21.456Z" fill="#0E9347"/>
<path d="M3.11524 26.7672H0.698242V28.5399H3.11524C3.60476 28.5399 4.00162 28.1431 4.00162 27.6536C4.00162 27.164 3.60476 26.7672 3.11524 26.7672Z" fill="#0E9347"/>
<path d="M3.11524 32.0785H0.698242V33.8513H3.11524C3.60476 33.8513 4.00162 33.4544 4.00162 32.9649C4.00162 32.4754 3.60476 32.0785 3.11524 32.0785Z" fill="#0E9347"/>
<path d="M3.11524 37.3898H0.698242V39.1626H3.11524C3.60476 39.1626 4.00162 38.7658 4.00162 38.2762C4.00162 37.7867 3.60476 37.3898 3.11524 37.3898Z" fill="#0E9347"/>
<path d="M3.11524 42.7012H0.698242V44.474H3.11524C3.60476 44.474 4.00162 44.0771 4.00162 43.5876C4.00162 43.0981 3.60476 42.7012 3.11524 42.7012Z" fill="#0E9347"/>
<path d="M3.11524 48.0125H0.698242V49.7853H3.11524C3.60476 49.7853 4.00162 49.3885 4.00162 48.8989C4.00162 48.4094 3.60476 48.0125 3.11524 48.0125Z" fill="#0E9347"/>
<path d="M3.11524 53.3238H0.698242V55.0965H3.11524C3.60476 55.0965 4.00162 54.6997 4.00162 54.2102C4.00162 53.7206 3.60476 53.3238 3.11524 53.3238Z" fill="#0E9347"/>
<path d="M59.302 11.6861V15.5153H54.5723V11.6861C54.5723 10.7926 55.2979 10.0681 56.1914 10.0681H57.6829C58.5764 10.0681 59.302 10.7926 59.302 11.6861Z" fill="#F7F6F7"/>
<path d="M58.9626 50.2947H55.0134L54.5723 51.5037V52.2896C54.5723 52.4173 54.6018 52.5437 54.6585 52.6584L56.6322 56.6506C56.7563 56.9036 57.1168 56.9036 57.2421 56.6506L59.2157 52.6584C59.2725 52.5437 59.302 52.4173 59.302 52.2896V51.5037L58.9626 50.2947Z" fill="#F7F6F7"/>
<path d="M56.7744 14.2781H55.0887L54.5723 15.5153V19.049L54.9826 20.0258H56.7744V14.2781Z" fill="#FEE45A"/>
<path d="M56.8606 51.7545C56.8038 51.6413 56.7743 51.5165 56.7743 51.3904V50.2947H55.0135L54.5723 51.5037V52.2896C54.5723 52.4173 54.6018 52.5437 54.6585 52.6584L56.6322 56.6506C56.7563 56.9036 57.1168 56.9036 57.2421 56.6506L58.2705 54.5705L56.8606 51.7545Z" fill="#EEECED"/>
<path d="M54.5723 19.049H59.302V51.5037H54.5723V19.049Z" fill="#C08773"/>
<path d="M56.7744 51.3904V19.049H54.5723V51.5037H56.7833C56.778 51.4661 56.7744 51.4284 56.7744 51.3904Z" fill="#B77159"/>
<path d="M56.7744 11.2967C56.7744 10.8027 57.0022 10.3611 57.3592 10.0681H56.1914C55.2979 10.0681 54.5723 10.7926 54.5723 11.6861V15.5153H56.7744V11.2967Z" fill="#EEECED"/>
</g>
<defs>
<clipPath id="clip0">
<rect width="60" height="60" fill="white"/>
</clipPath>
</defs>
</svg>
