<svg width="60" height="60" viewBox="0 0 60 60" fill="none" xmlns="http://www.w3.org/2000/svg">
<path d="M49.0147 29.1916L47.4906 16.8105L44.6345 17.162L44.6357 17.1601L39.0986 14.0439C38.508 13.7116 37.8302 13.567 37.1553 13.6293L28.4124 14.4379C27.3377 14.5373 26.3774 15.1505 25.8351 16.0838L19.673 26.6902C19.2179 27.4733 19.5751 28.4777 20.4225 28.7978L20.6746 28.8929C21.1595 29.0761 21.6579 29.1822 22.1561 29.2236L21.3752 29.9037L19.8131 31.2647L15.3702 35.0545C14.5793 35.7435 14.4972 36.9423 15.1861 37.7332L15.6368 38.2494C16.5216 39.264 18.0615 39.3693 19.078 38.4843L20.7761 40.432C21.3281 41.066 22.137 41.3464 22.914 41.2508C23.381 41.1934 23.8366 40.9998 24.2171 40.667L25.9133 42.6147C26.4674 43.2503 27.2761 43.5289 28.0531 43.4333C28.5201 43.3757 28.9759 43.184 29.3565 42.8513L30.2783 43.648C31.1633 44.6643 32.705 44.7694 33.7215 43.8844L34.9746 42.7912L45.5092 34.5867L45.5206 34.5763L49.677 34.5722L49.0147 29.1916Z" fill="#F29F5C"/>
<path d="M44.4995 31.3866L44.4881 31.397L33.9535 39.6015L32.7004 40.6947C31.684 41.5797 30.1422 41.4746 29.2572 40.4582L28.3354 39.6616C27.9548 39.9943 27.4989 40.1861 27.032 40.2435C26.255 40.3392 25.4464 40.0606 24.8922 39.425L23.196 37.4772C22.8154 37.8099 22.3598 38.0035 21.8929 38.0611C21.1159 38.1567 20.307 37.8764 19.755 37.2423L18.0569 35.2946C17.1867 36.0524 15.9337 36.0819 15.0357 35.4384C14.5752 36.1329 14.612 37.0741 15.1861 37.7332L15.6368 38.2494C16.5215 39.264 18.0615 39.3693 19.078 38.4843L20.776 40.432C21.3281 41.066 22.1369 41.3464 22.914 41.2508C23.381 41.1933 23.8365 40.9998 24.2171 40.6669L25.9133 42.6148C26.4673 43.2504 27.276 43.529 28.0531 43.4334C28.5201 43.3758 28.9758 43.1841 29.3564 42.8514L30.2782 43.6481C31.1632 44.6644 32.7049 44.7695 33.7214 43.8845L34.9745 42.7913L45.5091 34.5868L45.5205 34.5764L49.6769 34.5723L49.2171 30.8368L44.4995 31.3866Z" fill="#D37D42"/>
<path d="M46.4177 36.742L40.7734 31.8752L39.2038 30.5229L38.0807 29.5556L33.2517 25.3931L33.8094 20.6459C33.9981 19.0403 32.9874 17.5372 31.4292 17.106L20.9029 14.1933C19.7892 13.8851 18.612 14.4019 18.0852 15.4305L16.7614 18.0145L11.0792 17.6288L9.62379 30.0183L8.99121 35.4024L14.5222 35.7703L14.5337 35.7807L26.0886 45.7408L27.3477 46.8271C28.369 47.7065 29.9102 47.5928 30.7895 46.5715L32.4747 44.6162C32.8571 44.9467 33.314 45.136 33.7813 45.191C34.5588 45.2824 35.366 44.9992 35.9166 44.3606L37.602 42.4034C37.9843 42.734 38.441 42.9251 38.9084 42.98C39.6859 43.0714 40.4932 42.7865 41.0418 42.1494L42.7289 40.1923C43.7502 41.0717 45.2895 40.9578 46.1687 39.9383L46.6166 39.4195C47.3012 38.625 47.2124 37.4266 46.4177 36.742Z" fill="#F9C295"/>
<path d="M46.4174 36.742L44.6981 35.2596C45.2569 36.0006 45.2454 37.0547 44.6148 37.7866L44.1394 38.3373C43.2061 39.4195 41.572 39.5404 40.4878 38.6069L38.6967 40.6844C38.1144 41.3607 37.2575 41.663 36.432 41.5661C35.9359 41.5079 35.4511 41.305 35.0452 40.9541L33.256 43.0318C32.6716 43.7097 31.8148 44.0102 30.9894 43.9133C30.4933 43.855 30.0083 43.6541 29.6023 43.3031L27.8134 45.3789C27.4763 45.7705 27.0471 46.0342 26.5859 46.1702L27.3475 46.8272C28.3688 47.7066 29.9099 47.5929 30.7893 46.5717L32.4745 44.6163C32.8568 44.9469 33.3138 45.1361 33.7811 45.1911C34.5586 45.2824 35.3658 44.9994 35.9164 44.3607L37.6017 42.4036C37.9841 42.7341 38.4408 42.9253 38.9081 42.9801C39.6857 43.0715 40.493 42.7866 41.0415 42.1495L42.7287 40.1925C43.75 41.0718 45.2893 40.9579 46.1685 39.9384L46.6164 39.4196C47.3008 38.625 47.212 37.4266 46.4174 36.742Z" fill="#E59F6A"/>
<path d="M43.3006 39.5408L40.2078 36.8741C39.8404 36.5572 39.2853 36.5982 38.9681 36.9658C38.6512 37.3334 38.6923 37.8884 39.0599 38.2054L42.1472 40.8675L42.7292 40.1925C42.9614 40.3925 43.2212 40.5384 43.4932 40.6367C43.694 40.2794 43.6228 39.8186 43.3006 39.5408Z" fill="#E59F6A"/>
<path d="M38.3556 42.8468C38.5674 42.4876 38.4995 42.0178 38.1725 41.7358L35.3943 39.3404C35.0267 39.0235 34.4718 39.0645 34.1547 39.4322C33.8377 39.7998 33.8788 40.3548 34.2464 40.6718L37.0247 43.0672C37.0259 43.0681 37.027 43.0689 37.0282 43.0699L37.6022 42.4033C37.8311 42.6012 38.087 42.7481 38.3556 42.8468Z" fill="#E59F6A"/>
<path d="M14.8113 35.7579L14.1418 36.6419C13.4128 37.6046 13.6021 38.9761 14.5648 39.7052C15.5275 40.4342 16.899 40.2448 17.6281 39.2822L18.2976 38.3981C19.0266 37.4354 18.8372 36.064 17.8745 35.3348C16.9119 34.6058 15.5403 34.7952 14.8113 35.7579Z" fill="#F29F5C"/>
<path d="M18.8889 37.6173L17.6281 39.2822C16.8991 40.2448 17.0885 41.6163 18.0512 42.3454C19.0139 43.0744 20.3853 42.8851 21.1144 41.9224L22.3752 40.2575C23.1043 39.2948 22.9149 37.9234 21.9522 37.1942C20.9894 36.4652 19.618 36.6546 18.8889 37.6173Z" fill="#F29F5C"/>
<path d="M22.8328 39.6534L21.1144 41.9224C20.3854 42.8851 20.5748 44.2565 21.5375 44.9856C22.5002 45.7147 23.8716 45.5253 24.6008 44.5626L26.3191 42.2936C27.0481 41.3309 26.8587 39.9595 25.896 39.2304C24.9333 38.5012 23.5619 38.6907 22.8328 39.6534Z" fill="#F29F5C"/>
<path d="M26.4188 42.1619L24.6008 44.5625C23.8718 45.5252 24.0611 46.8966 25.0238 47.6258C25.9865 48.3548 27.358 48.1654 28.0871 47.2027L29.9051 44.8021C30.6342 43.8394 30.4448 42.468 29.4821 41.7389C28.5193 41.0098 27.1478 41.1992 26.4188 42.1619Z" fill="#F29F5C"/>
<path d="M44.6363 17.1601L39.0992 14.0439C38.5086 13.7116 37.8308 13.567 37.1559 13.6293L28.413 14.4379C27.3383 14.5373 26.3779 15.1505 25.8357 16.0838L19.6735 26.6902C19.2185 27.4735 19.5757 28.4777 20.4231 28.7978L20.6751 28.8929C22.9339 29.7461 25.4849 29.0201 26.9559 27.1056L29.3169 24.033C29.3169 24.033 34.9921 30.604 41.2405 22.9302" fill="#F29F5C"/>
<path d="M59.9935 36.2278L57.0974 12.7024C57.069 12.471 56.9498 12.2605 56.766 12.117C56.5823 11.9736 56.3492 11.9091 56.1178 11.9375L49.3457 12.7712C47.5869 12.9877 46.3322 14.5948 46.5487 16.3536L48.8742 35.2441C49.0743 36.8703 50.4631 38.0655 52.0617 38.0655C52.192 38.0655 52.3241 38.0575 52.4566 38.0413L59.2286 37.2076C59.7102 37.1482 60.0528 36.7095 59.9935 36.2278Z" fill="#5C9CEE"/>
<path d="M59.9931 36.2278L59.6751 33.6455C59.531 33.857 59.3009 34.0081 59.0269 34.0419L51.928 34.9158C51.789 34.9329 51.6507 34.9412 51.514 34.9412C50.3187 34.9412 49.2358 34.3035 48.6367 33.3193L48.8737 35.244C49.0738 36.8702 50.4626 38.0654 52.0612 38.0654C52.1915 38.0654 52.3235 38.0574 52.4561 38.0411L59.2281 37.2075C59.7098 37.1482 60.0524 36.7095 59.9931 36.2278Z" fill="#3580D3"/>
<path d="M10.6544 12.771L3.8824 11.9374C3.65072 11.9089 3.41787 11.9735 3.23412 12.1169C3.05037 12.2603 2.93119 12.4709 2.90272 12.7023L0.00667212 36.2278C-0.0526245 36.7095 0.289913 37.1482 0.771552 37.2075L7.54356 38.0411C7.67621 38.0574 7.80805 38.0654 7.93848 38.0654C9.53691 38.0654 10.9258 36.8701 11.126 35.244L13.4514 16.3534C13.668 14.5947 12.4133 12.9876 10.6544 12.771Z" fill="#ED5575"/>
<path d="M0.00667393 36.2278L0.324602 33.6455C0.468742 33.857 0.698898 34.0081 0.972881 34.0419L8.07172 34.9158C8.2107 34.9329 8.3491 34.9412 8.48574 34.9412C9.68105 34.9412 10.764 34.3035 11.363 33.3193L11.1261 35.244C10.9259 36.8702 9.53714 38.0654 7.9386 38.0654C7.80828 38.0654 7.67621 38.0574 7.54368 38.0411L0.771671 37.2075C0.289798 37.1482 -0.0526227 36.7095 0.00667393 36.2278Z" fill="#CC3A60"/>
<path d="M54.3748 34.1599C55.3131 34.1599 56.0737 33.3992 56.0737 32.4609C56.0737 31.5226 55.3131 30.7619 54.3748 30.7619C53.4364 30.7619 52.6758 31.5226 52.6758 32.4609C52.6758 33.3992 53.4364 34.1599 54.3748 34.1599Z" fill="#EBEEF2"/>
<path d="M5.53003 34.1599C6.46835 34.1599 7.22901 33.3992 7.22901 32.4609C7.22901 31.5226 6.46835 30.7619 5.53003 30.7619C4.59171 30.7619 3.83105 31.5226 3.83105 32.4609C3.83105 33.3992 4.59171 34.1599 5.53003 34.1599Z" fill="#EBEEF2"/>
</svg>
