<svg width="60" height="60" viewBox="0 0 60 60" fill="none" xmlns="http://www.w3.org/2000/svg">
<g clip-path="url(#clip0)">
<path d="M37.2415 45.5172H22.7588V55.8621H37.2415V45.5172Z" fill="#285680"/>
<path d="M0 37.2414H60V45.5172C60 46.6599 59.0737 47.5862 57.931 47.5862H2.06897C0.926307 47.5862 0 46.6599 0 45.5172V37.2414Z" fill="#4482C3"/>
<path d="M32.0689 44.4828H27.931C27.3596 44.4828 26.8965 44.0196 26.8965 43.4483C26.8965 42.8769 27.3596 42.4138 27.931 42.4138H32.0689C32.6402 42.4138 33.1034 42.8769 33.1034 43.4483C33.1034 44.0196 32.6402 44.4828 32.0689 44.4828Z" fill="#285680"/>
<path d="M60 2.06897L60.0001 39.3103H0V2.06897C0.00340841 0.927722 0.927722 0.00340841 2.06897 0H57.931C58.6003 0.00111796 59.228 0.324596 59.6172 0.868965C59.8692 1.21806 60.0033 1.63843 60 2.06897Z" fill="#B0D3F0"/>
<path d="M60 2.06897L60.0001 39.3103H0C0 5.67931 42.4759 0.713793 56.6276 0H57.931C58.6003 0.00111796 59.228 0.324596 59.6172 0.868965C59.8692 1.21806 60.0033 1.63843 60 2.06897Z" fill="#90BAE1"/>
<path d="M6.20696 5.17241H4.138C3.56667 5.17241 3.10352 4.70926 3.10352 4.13793C3.10352 3.5666 3.56667 3.10345 4.138 3.10345H6.20696C6.77829 3.10345 7.24145 3.5666 7.24145 4.13793C7.24145 4.70926 6.77829 5.17241 6.20696 5.17241Z" fill="white"/>
<path d="M16.5519 5.17241H10.345C9.7737 5.17241 9.31055 4.70926 9.31055 4.13793C9.31055 3.5666 9.7737 3.10345 10.345 3.10345H16.5519C17.1233 3.10345 17.5864 3.5666 17.5864 4.13793C17.5864 4.70926 17.1233 5.17241 16.5519 5.17241Z" fill="white"/>
<path d="M21.7239 53.7931H38.2756C40.5609 53.7931 42.4135 55.6457 42.4135 57.931V58.9655C42.4135 59.5368 41.9504 60 41.379 60H18.6204C18.0491 60 17.5859 59.5368 17.5859 58.9655V57.931C17.5859 55.6457 19.4386 53.7931 21.7239 53.7931Z" fill="#4482C3"/>
<path d="M59.9997 57.931V58.9655C59.9997 59.5369 59.5366 60 58.9653 60H48.6204C48.0491 60 47.5859 59.5369 47.5859 58.9655V57.931C47.5847 54.9031 49.772 52.3177 52.7584 51.8172C53.4424 51.6931 54.1432 51.6931 54.8273 51.8172C56.1004 52.0202 57.2751 52.6256 58.179 53.5448C59.3488 54.7041 60.0047 56.2841 59.9997 57.931Z" fill="#4482C3"/>
<path d="M54.8278 51.8172V54.8276C54.8278 55.3989 54.3646 55.8621 53.7933 55.8621C53.2219 55.8621 52.7588 55.3989 52.7588 54.8276V51.8172C53.4429 51.6931 54.1437 51.6931 54.8278 51.8172Z" fill="#285680"/>
<path d="M30 35.1724L13.4482 17.5862H24.8275L30 35.1724Z" fill="#FB7B76"/>
<path d="M46.5517 17.5862L30 35.1724L35.1724 17.5862H46.5517Z" fill="#802D40"/>
<path d="M46.5522 17.5862H35.1729L40.3453 8.27586L46.5522 17.5862Z" fill="#DF4D60"/>
<path d="M40.3448 8.27586L35.1724 17.5862L30 8.27586H40.3448Z" fill="#FB7B76"/>
<path d="M29.9991 8.27586L24.8267 17.5862L19.6543 8.27586H29.9991Z" fill="#FB7B76"/>
<path d="M24.8275 17.5862H13.4482L19.6551 8.27586L24.8275 17.5862Z" fill="#FDB0AD"/>
<path d="M35.172 17.5862H24.8271L29.9996 8.27586L35.172 17.5862Z" fill="#FF5364"/>
<path d="M35.172 17.5862L29.9996 35.1724L24.8271 17.5862H35.172Z" fill="#DF4D60"/>
<path d="M45.5179 27.931C44.9466 27.931 44.4834 27.4679 44.4834 26.8966V25.8621C44.4834 25.2907 44.9466 24.8276 45.5179 24.8276C46.0892 24.8276 46.5524 25.2907 46.5524 25.8621V26.8966C46.5524 27.4679 46.0892 27.931 45.5179 27.931Z" fill="#FF5364"/>
<path d="M48.6207 30H47.5862C47.0149 30 46.5518 29.5369 46.5518 28.9655C46.5518 28.3942 47.0149 27.931 47.5862 27.931H48.6207C49.1921 27.931 49.6552 28.3942 49.6552 28.9655C49.6552 29.5369 49.1921 30 48.6207 30Z" fill="#FF5364"/>
<path d="M45.5179 33.1034C44.9466 33.1034 44.4834 32.6403 44.4834 32.069V31.0345C44.4834 30.4632 44.9466 30 45.5179 30C46.0892 30 46.5524 30.4632 46.5524 31.0345V32.069C46.5524 32.6403 46.0892 33.1034 45.5179 33.1034Z" fill="#FF5364"/>
<path d="M43.4479 30H42.4134C41.8421 30 41.3789 29.5369 41.3789 28.9655C41.3789 28.3942 41.8421 27.931 42.4134 27.931H43.4479C44.0192 27.931 44.4824 28.3942 44.4824 28.9655C44.4824 29.5369 44.0192 30 43.4479 30Z" fill="#FF5364"/>
<path d="M8.27569 11.3793C7.70436 11.3793 7.24121 10.9162 7.24121 10.3448V9.31034C7.24121 8.73902 7.70436 8.27586 8.27569 8.27586C8.84702 8.27586 9.31018 8.73902 9.31018 9.31034V10.3448C9.31018 10.9162 8.84702 11.3793 8.27569 11.3793Z" fill="#FF5364"/>
<path d="M11.3795 13.4483H10.345C9.7737 13.4483 9.31055 12.9851 9.31055 12.4138C9.31055 11.8425 9.7737 11.3793 10.345 11.3793H11.3795C11.9508 11.3793 12.414 11.8425 12.414 12.4138C12.414 12.9851 11.9508 13.4483 11.3795 13.4483Z" fill="#FF5364"/>
<path d="M8.27569 16.5517C7.70436 16.5517 7.24121 16.0886 7.24121 15.5172V14.4828C7.24121 13.9114 7.70436 13.4483 8.27569 13.4483C8.84702 13.4483 9.31018 13.9114 9.31018 14.4828V15.5172C9.31018 16.0886 8.84702 16.5517 8.27569 16.5517Z" fill="#FF5364"/>
<path d="M6.20666 13.4483H5.17218C4.60085 13.4483 4.1377 12.9851 4.1377 12.4138C4.1377 11.8425 4.60085 11.3793 5.17218 11.3793H6.20666C6.77799 11.3793 7.24114 11.8425 7.24114 12.4138C7.24114 12.9851 6.77799 13.4483 6.20666 13.4483Z" fill="#FF5364"/>
<path d="M50.6888 6.2069C50.1174 6.2069 49.6543 5.74375 49.6543 5.17242V4.13793C49.6543 3.5666 50.1174 3.10345 50.6888 3.10345C51.2601 3.10345 51.7233 3.5666 51.7233 4.13793V5.17242C51.7233 5.74375 51.2601 6.2069 50.6888 6.2069Z" fill="#FF5364"/>
<path d="M53.7936 8.27586H52.7591C52.1878 8.27586 51.7246 7.81271 51.7246 7.24138C51.7246 6.67005 52.1878 6.2069 52.7591 6.2069H53.7936C54.3649 6.2069 54.8281 6.67005 54.8281 7.24138C54.8281 7.81271 54.3649 8.27586 53.7936 8.27586Z" fill="#FF5364"/>
<path d="M50.6888 11.3793C50.1174 11.3793 49.6543 10.9162 49.6543 10.3448V9.31034C49.6543 8.73902 50.1174 8.27586 50.6888 8.27586C51.2601 8.27586 51.7233 8.73902 51.7233 9.31034V10.3448C51.7233 10.9162 51.2601 11.3793 50.6888 11.3793Z" fill="#FF5364"/>
<path d="M48.6207 8.27586H47.5862C47.0149 8.27586 46.5518 7.81271 46.5518 7.24138C46.5518 6.67005 47.0149 6.2069 47.5862 6.2069H48.6207C49.1921 6.2069 49.6552 6.67005 49.6552 7.24138C49.6552 7.81271 49.1921 8.27586 48.6207 8.27586Z" fill="#FF5364"/>
<path d="M13.4485 31.0345C12.8772 31.0345 12.4141 30.5713 12.4141 30V28.9655C12.4141 28.3942 12.8772 27.931 13.4485 27.931C14.0199 27.931 14.483 28.3942 14.483 28.9655V30C14.483 30.5713 14.0199 31.0345 13.4485 31.0345Z" fill="#FF5364"/>
<path d="M16.5524 33.1034H15.5179C14.9466 33.1034 14.4834 32.6403 14.4834 32.069C14.4834 31.4976 14.9466 31.0345 15.5179 31.0345H16.5524C17.1237 31.0345 17.5868 31.4976 17.5868 32.069C17.5868 32.6403 17.1237 33.1034 16.5524 33.1034Z" fill="#FF5364"/>
<path d="M13.4485 36.2069C12.8772 36.2069 12.4141 35.7437 12.4141 35.1724V34.1379C12.4141 33.5666 12.8772 33.1034 13.4485 33.1034C14.0199 33.1034 14.483 33.5666 14.483 34.1379V35.1724C14.483 35.7437 14.0199 36.2069 13.4485 36.2069Z" fill="#FF5364"/>
<path d="M11.3795 33.1034H10.345C9.7737 33.1034 9.31055 32.6403 9.31055 32.069C9.31055 31.4976 9.7737 31.0345 10.345 31.0345H11.3795C11.9508 31.0345 12.414 31.4976 12.414 32.069C12.414 32.6403 11.9508 33.1034 11.3795 33.1034Z" fill="#FF5364"/>
</g>
<defs>
<clipPath id="clip0">
<rect width="60" height="60" fill="white"/>
</clipPath>
</defs>
</svg>
