<svg width="60" height="60" viewBox="0 0 60 60" fill="none" xmlns="http://www.w3.org/2000/svg">
<path d="M42.6562 38.4375C43.8847 38.4375 45.0821 38.051 46.0787 37.3327C47.0753 36.6143 47.8206 35.6007 48.2091 34.4352L48.75 32.8125H47.8125C47.3152 32.8125 46.8383 32.615 46.4867 32.2633C46.135 31.9117 45.9375 31.4348 45.9375 30.9375V24.375H38.4375V30.9375C38.4375 31.4348 38.24 31.9117 37.8883 32.2633C37.5367 32.615 37.0598 32.8125 36.5625 32.8125L37.1034 34.4352C37.4919 35.6007 38.2372 36.6143 39.2338 37.3327C40.2304 38.051 41.4278 38.4375 42.6562 38.4375Z" fill="#FDC8A2"/>
<path d="M22.5 57.1875H29.0625L32.7739 44.5686L26.2539 43.2448L22.5 57.1875Z" fill="#FDC8A2"/>
<path d="M51.5628 32.8125H48.7503L48.2093 34.4352C47.8209 35.6007 47.0756 36.6143 46.079 37.3327C45.0824 38.051 43.885 38.4375 42.6565 38.4375C41.428 38.4375 40.2307 38.051 39.2341 37.3327C38.2375 36.6143 37.4922 35.6007 37.1037 34.4352L36.5628 32.8125H32.6552C31.6243 32.8125 30.6221 33.1524 29.8039 33.7794C28.9856 34.4065 28.3969 35.2858 28.1289 36.2813L26.2539 43.2446L32.774 44.5689L33.7503 41.25V57.1875H50.6253V45H56.2503V37.5C56.2503 36.2568 55.7564 35.0645 54.8773 34.1854C53.9983 33.3064 52.806 32.8125 51.5628 32.8125Z" fill="#7EB357"/>
<path d="M45.9375 24.375V29.1223C44.7717 29.6996 43.4884 30 42.1875 30C40.8866 30 39.6033 29.6996 38.4375 29.1223V24.375H45.9375Z" fill="#FDBF92"/>
<path d="M50.625 57.1875H52.5C53.4946 57.1875 54.4484 56.7924 55.1516 56.0891C55.8549 55.3859 56.25 54.4321 56.25 53.4375V45H50.625V57.1875Z" fill="#FDC8A2"/>
<path d="M50.6252 41.25V39.375H33.7502V41.25C32.507 42.4932 31.8086 44.1794 31.8086 45.9375C31.8086 47.6956 32.507 49.3818 33.7502 50.625V57.1875H50.6252V50.625C51.8684 49.3818 52.5668 47.6956 52.5668 45.9375C52.5668 44.1794 51.8684 42.4932 50.6252 41.25Z" fill="#7EB357"/>
<path d="M42.6562 43.125C40.1436 43.125 38.622 42.1705 37.7881 41.3698L39.0868 40.0174C39.9265 40.8238 41.1609 41.25 42.6562 41.25C44.7868 41.25 45.9268 40.4147 46.508 39.714L47.9512 40.9111C47.1133 41.9211 45.5147 43.125 42.6562 43.125Z" fill="#79AC54"/>
<path d="M33.75 53.4375H41.25L48.2423 56.2344C49.8164 56.8641 51.4961 57.1875 53.1914 57.1875C54.0026 57.1875 54.7806 56.8653 55.3542 56.2917C55.9278 55.7181 56.25 54.9401 56.25 54.1289C56.2499 53.4099 55.9966 52.714 55.5344 52.1632C55.0723 51.6125 54.4309 51.2421 53.7229 51.1172L40.3125 48.75H36.5625L33.75 49.6875V53.4375Z" fill="#FDC8A2"/>
<path d="M32.8125 15H33.75V20.625H32.8125C32.0666 20.625 31.3512 20.3287 30.8238 19.8012C30.2963 19.2738 30 18.5584 30 17.8125C30 17.0666 30.2963 16.3512 30.8238 15.8238C31.3512 15.2963 32.0666 15 32.8125 15Z" fill="#FDB683"/>
<path d="M42.1875 28.125C39.9497 28.125 37.8036 27.2361 36.2213 25.6537C34.6389 24.0714 33.75 21.9253 33.75 19.6875V13.125C33.75 11.1359 34.5402 9.22822 35.9467 7.8217C37.3532 6.41518 39.2609 5.625 41.25 5.625H43.125C45.1141 5.625 47.0218 6.41518 48.4283 7.8217C49.8348 9.22822 50.625 11.1359 50.625 13.125V19.6875C50.625 21.9253 49.7361 24.0714 48.1537 25.6537C46.5714 27.2361 44.4253 28.125 42.1875 28.125Z" fill="#FDC8A2"/>
<path d="M31.875 13.125V15.9375C44.0625 15 47.8125 9.375 47.8125 9.375L50.625 15L52.5 15.9375V13.125C52.5 10.39 51.4135 7.76693 49.4795 5.83296C47.5456 3.89899 44.9225 2.8125 42.1875 2.8125C39.4525 2.8125 36.8294 3.89899 34.8955 5.83296C32.9615 7.76693 31.875 10.39 31.875 13.125Z" fill="#91563A"/>
<path d="M50.625 15H51.5625C52.3084 15 53.0238 15.2963 53.5512 15.8238C54.0787 16.3512 54.375 17.0666 54.375 17.8125C54.375 18.5584 54.0787 19.2738 53.5512 19.8012C53.0238 20.3287 52.3084 20.625 51.5625 20.625H50.625V15Z" fill="#FDB683"/>
<path d="M31.875 27.1875H5.625C4.0717 27.1875 2.8125 28.4467 2.8125 30V46.875C2.8125 48.4283 4.0717 49.6875 5.625 49.6875H31.875C33.4283 49.6875 34.6875 48.4283 34.6875 46.875V30C34.6875 28.4467 33.4283 27.1875 31.875 27.1875Z" fill="#D5D5D3"/>
<path d="M15 53.4375H26.25V57.1875H15V53.4375Z" fill="#D5D5D3"/>
<path d="M20.625 57.1875H11.25L15 42.1875H22.5L20.625 57.1875Z" fill="#DFDFDD"/>
<path d="M5.625 30H9.375V31.875H5.625V30Z" fill="#C6C6C4"/>
<path d="M11.25 30H15V31.875H11.25V30Z" fill="#C6C6C4"/>
<path d="M16.875 30H20.625V31.875H16.875V30Z" fill="#C6C6C4"/>
<path d="M22.5 30H26.25V31.875H22.5V30Z" fill="#C6C6C4"/>
<path d="M28.125 30H31.875V31.875H28.125V30Z" fill="#C6C6C4"/>
<path d="M1.875 57.1875H58.125V59.0625H1.875V57.1875Z" fill="#DFDFDD"/>
<path d="M28.125 21.5625H17.8125L15 27.1875L12.1875 21.5625H6.5625C5.56794 21.5625 4.61411 21.1674 3.91085 20.4641C3.20759 19.7609 2.8125 18.8071 2.8125 17.8125V8.4375C2.8125 7.44294 3.20759 6.48911 3.91085 5.78585C4.61411 5.08259 5.56794 4.6875 6.5625 4.6875H28.125C29.1196 4.6875 30.0734 5.08259 30.7766 5.78585C31.4799 6.48911 31.875 7.44294 31.875 8.4375V17.8125C31.875 18.8071 31.4799 19.7609 30.7766 20.4641C30.0734 21.1674 29.1196 21.5625 28.125 21.5625Z" fill="#348ED8"/>
<path d="M23.4375 8.4375H28.125V10.3125H23.4375V8.4375Z" fill="#2D7DBE"/>
<path d="M6.5625 12.1875H27.1875V14.0625H6.5625V12.1875Z" fill="#2D7DBE"/>
<path d="M6.5625 15.9375H27.1875V17.8125H6.5625V15.9375Z" fill="#2D7DBE"/>
<path d="M6.5625 8.4375H21.5625V10.3125H6.5625V8.4375Z" fill="#2D7DBE"/>
<path d="M30 53.4375H42.1875V57.1875H30V53.4375Z" fill="#DFDFDD"/>
</svg>
