<svg width="60" height="60" viewBox="0 0 60 60" fill="none" xmlns="http://www.w3.org/2000/svg">
<g clip-path="url(#clip0)">
<path d="M49.2888 60H5.57715V4.10645H49.2888V60Z" fill="#B5CEFF"/>
<path d="M54.4226 55.8935L39.8918 51.4256L18.4661 49.5567C13.9815 48.7664 10.7109 44.8608 10.7109 40.2956V0H54.4226V55.8935Z" fill="#E9F2FF"/>
<path d="M48.3867 0V54.8297L54.4229 55.8935V0L48.3867 0Z" fill="#DEEBFF"/>
<path d="M18.6963 49.5653L54.4228 55.8935L26.6463 38.968C26.6463 38.968 27.0165 49.5653 18.6963 49.5653Z" fill="#91A8DD"/>
<path d="M18.7472 10.077H46.3853C46.8853 10.077 47.2907 9.67166 47.2907 9.17163C47.2907 8.67159 46.8853 8.26624 46.3853 8.26624H18.7472C18.2471 8.26624 17.8418 8.67159 17.8418 9.17163C17.8418 9.67166 18.2471 10.077 18.7472 10.077Z" fill="#91A8DD"/>
<path d="M46.3853 13.8489H18.7472C18.2471 13.8489 17.8418 14.2542 17.8418 14.7543C17.8418 15.2543 18.2471 15.6597 18.7472 15.6597H46.3853C46.8853 15.6597 47.2907 15.2543 47.2907 14.7543C47.2907 14.2542 46.8854 13.8489 46.3853 13.8489Z" fill="#91A8DD"/>
<path d="M46.3853 19.4315H18.7472C18.2471 19.4315 17.8418 19.8369 17.8418 20.3369C17.8418 20.8369 18.2471 21.2423 18.7472 21.2423H46.3853C46.8853 21.2423 47.2907 20.8369 47.2907 20.3369C47.2907 19.8369 46.8854 19.4315 46.3853 19.4315Z" fill="#91A8DD"/>
<path d="M46.3853 25.0142H18.7472C18.2471 25.0142 17.8418 25.4195 17.8418 25.9196C17.8418 26.4196 18.2471 26.8249 18.7472 26.8249H46.3853C46.8853 26.8249 47.2907 26.4196 47.2907 25.9196C47.2907 25.4195 46.8854 25.0142 46.3853 25.0142Z" fill="#91A8DD"/>
</g>
<defs>
<clipPath id="clip0">
<rect width="60" height="60" fill="white"/>
</clipPath>
</defs>
</svg>
