<svg width="60" height="60" viewBox="0 0 60 60" fill="none" xmlns="http://www.w3.org/2000/svg">
<path d="M57.1875 42.1875H2.8125V46.875H4.6875V57.1875H55.3125V46.875H57.1875V42.1875Z" fill="#FB8656"/>
<path d="M4.6875 46.875H55.3125V49.6875H4.6875V46.875Z" fill="#FB7156"/>
<path d="M57.1875 42.1875V27.6986C57.1875 27.2633 57.0663 26.8366 56.8375 26.4663C56.6086 26.0961 56.2812 25.7968 55.8919 25.6022L47.8125 22.1484H40.3125L32.2331 25.6022C31.8438 25.7968 31.5164 26.0961 31.2875 26.4663C31.0587 26.8366 30.9375 27.2633 30.9375 27.6986V42.1875H57.1875Z" fill="#25B1FA"/>
<path d="M48.75 22.5L44.9634 27.0438C44.8534 27.1759 44.7157 27.2821 44.56 27.3549C44.4044 27.4278 44.2346 27.4655 44.0627 27.4655C43.8909 27.4654 43.7211 27.4275 43.5655 27.3545C43.4099 27.2816 43.2723 27.1752 43.1624 27.0431L39.375 22.4913L41.25 17.8125H46.875L48.75 22.5Z" fill="#FFD4CF"/>
<path d="M46.8753 17.8125H41.2503L40.2412 20.3307L41.7227 21.3184C42.4157 21.7804 43.2299 22.0269 44.0628 22.0269C44.8957 22.0269 45.7099 21.7804 46.4029 21.3184L47.883 20.3317L46.8753 17.8125Z" fill="#FBB8B0"/>
<path d="M49.6875 8.20312H38.4375V15.6211C38.4375 16.0069 38.5328 16.3868 38.7148 16.727C38.8969 17.0672 39.1601 17.3572 39.4812 17.5712L42.7624 19.7587C43.1474 20.0154 43.5998 20.1524 44.0625 20.1524C44.5252 20.1524 44.9776 20.0154 45.3626 19.7587L48.6438 17.5712C48.9649 17.3572 49.2281 17.0672 49.4102 16.727C49.5922 16.3868 49.6875 16.0069 49.6875 15.6211V8.20312Z" fill="#FFD4CF"/>
<path d="M48.2812 3.75H45.9375C45.9375 3.75 44.8882 2.8125 43.5938 2.8125H36.5625V6.09375C36.5625 6.71535 36.8094 7.31149 37.249 7.75103C37.6885 8.19057 38.2846 8.4375 38.9062 8.4375H49.4531C49.7639 8.4375 50.062 8.31403 50.2818 8.09427C50.5015 7.8745 50.625 7.57643 50.625 7.26562V6.09375C50.625 5.47215 50.3781 4.87601 49.9385 4.43647C49.499 3.99693 48.9029 3.75 48.2812 3.75Z" fill="#FDC069"/>
<path d="M44.0625 36.5625H51.5625V38.4375H44.0625V36.5625Z" fill="#2590FA"/>
<path d="M39.5488 36.9364L44.2344 30.3717L45.7607 31.4611L41.0751 38.0258L39.5488 36.9364Z" fill="#FDC069"/>
<path d="M41.25 36.5625H44.0625V42.1875H36.5625V41.25C36.5625 40.0068 37.0564 38.8145 37.9354 37.9354C38.8145 37.0564 40.0068 36.5625 41.25 36.5625Z" fill="#FFD4CF"/>
<path d="M35.2775 42.1875H7.56766C7.23952 42.1758 6.92491 42.0538 6.67475 41.8411C6.42459 41.6285 6.2535 41.3376 6.18918 41.0156L3.13059 23.6719C3.01645 23.0246 3.44863 22.5 4.09586 22.5H31.806C32.1342 22.5117 32.4488 22.6337 32.6989 22.8464C32.9491 23.059 33.1202 23.3499 33.1845 23.6719L36.2431 41.0156C36.3569 41.6629 35.9247 42.1875 35.2775 42.1875Z" fill="#4D4D4D"/>
<path d="M24.146 36.0006C26.0662 33.9012 25.5932 30.3429 23.0895 28.053C20.5858 25.763 16.9996 25.6085 15.0794 27.7079C13.1592 29.8074 13.6322 33.3657 16.1359 35.6556C18.6396 37.9456 22.2258 38.1 24.146 36.0006Z" fill="#FDC069"/>
<path d="M29.0625 30H10.3125C9.81522 30 9.33831 30.1975 8.98668 30.5492C8.63504 30.9008 8.4375 31.3777 8.4375 31.875C8.4375 32.3723 8.63504 32.8492 8.98668 33.2008C9.33831 33.5525 9.81522 33.75 10.3125 33.75H10.8633L9.375 42.1875H13.125L14.6133 33.75H24.375L22.8867 42.1875H26.6367L28.125 33.75H29.0625C29.5598 33.75 30.0367 33.5525 30.3883 33.2008C30.74 32.8492 30.9375 32.3723 30.9375 31.875C30.9375 31.3777 30.74 30.9008 30.3883 30.5492C30.0367 30.1975 29.5598 30 29.0625 30Z" fill="#999999"/>
<path d="M31.6406 2.8125H5.85938C5.54857 2.8125 5.2505 2.93597 5.03073 3.15573C4.81097 3.3755 4.6875 3.67357 4.6875 3.98438V14.7656C4.6875 15.0764 4.81097 15.3745 5.03073 15.5943C5.2505 15.814 5.54857 15.9375 5.85938 15.9375H9.9375L12.1875 18.75L14.4375 15.9375H31.6406C31.9514 15.9375 32.2495 15.814 32.4693 15.5943C32.689 15.3745 32.8125 15.0764 32.8125 14.7656V3.98438C32.8125 3.67357 32.689 3.3755 32.4693 3.15573C32.2495 2.93597 31.9514 2.8125 31.6406 2.8125Z" fill="#D3EFFE"/>
<path d="M11.25 12.1875C12.8033 12.1875 14.0625 10.9283 14.0625 9.375C14.0625 7.8217 12.8033 6.5625 11.25 6.5625C9.6967 6.5625 8.4375 7.8217 8.4375 9.375C8.4375 10.9283 9.6967 12.1875 11.25 12.1875Z" fill="#FDC069"/>
<path d="M15.9375 6.5625L19.6875 12.1875H12.1875L15.9375 6.5625Z" fill="#25B1FA"/>
<path d="M21.1456 9.2175L20.1055 7.6575L22.918 5.7825C23.072 5.67976 23.2529 5.62496 23.438 5.625H30.0005V7.5H23.7219L21.1456 9.2175Z" fill="#25B1FA"/>
<path d="M23.418 9.37708H30.0004V11.2521H23.418V9.37708Z" fill="#25B1FA"/>
</svg>
