<svg width="60" height="60" viewBox="0 0 60 60" fill="none" xmlns="http://www.w3.org/2000/svg">
<g clip-path="url(#clip0)">
<path d="M56.679 26.4517C56.5411 26.7414 56.4066 27.0517 56.2756 27.3828L51.4239 39.0931L45.8066 31.0345L48.6308 24.2069C48.7549 23.8966 48.8791 23.5966 48.9825 23.3173L56.679 26.4517Z" fill="#E64C3C"/>
<path d="M41.0895 22.8517C40.9861 24.9207 40.7689 26.9896 40.4585 29.0586L33.2378 30.2276C33.0845 27.6105 33.1329 24.9855 33.3827 22.3758V22.3655L41.0895 22.8517Z" fill="#4482C3"/>
<path d="M23.5752 10.1896C23.5752 10.1896 24.4856 18.241 21.4649 18.9434C18.4442 19.6458 15.5166 12.0827 15.5166 12.0827L15.7132 6.78618C16.5718 7.09652 16.6669 3.54618 17.629 3.31859C18.5911 3.09101 20.4201 6.19653 21.0511 5.53446L23.5752 10.1896Z" fill="#FDD7AD"/>
<path d="M29.0166 33.4551L26.8959 40.3447L26.3166 39.8482L20.9269 35.1723L15.5166 12.0827C15.5166 12.0827 17.2338 14.8654 20.2545 14.1516C23.2752 13.4379 23.5752 10.1896 23.5752 10.1896L29.0166 33.4551Z" fill="#E64C3C"/>
<path d="M26.3166 39.8483L20.9269 35.1724L15.5166 12.0828C15.5166 12.0828 17.2338 14.8655 20.2545 14.1517L26.3166 39.8483Z" fill="#C03A2B"/>
<path d="M16.6349 35.762L16.5521 48.6207L8.39005 45.6L0.134877 25.6862C0.028697 25.4325 0.0279344 25.1469 0.132758 24.8926C0.237582 24.6383 0.43936 24.4362 0.693498 24.331L9.30039 20.7724C9.82887 20.5561 10.433 20.8052 10.6556 21.331L11.4418 23.2448L11.8349 24.1965L12.228 25.1483L13.0245 27.062L13.4176 28.0138L13.8211 28.9758L14.6073 30.8896L15.0004 31.8414L15.3935 32.7931L16.5935 35.6689L16.6349 35.762Z" fill="#F0C419"/>
<path d="M12.228 25.1482L7.45907 27.1344C7.33026 27.1834 7.19344 27.208 7.05562 27.2068C6.56633 27.2011 6.14799 26.8533 6.05299 26.3733C5.95798 25.8932 6.2123 25.4123 6.66252 25.2206L11.4418 23.2448L11.8349 24.1965L12.228 25.1482Z" fill="#B19046"/>
<path d="M13.8207 28.9758L10.9448 30.1654C10.8198 30.2153 10.6862 30.2399 10.5517 30.2379C10.0624 30.2321 9.64408 29.8843 9.54908 29.4043C9.45408 28.9243 9.7084 28.4434 10.1586 28.2517L13.0241 27.062L13.4172 28.0137L13.8207 28.9758Z" fill="#B19046"/>
<path d="M15.3929 32.793L10.624 34.7792C10.4985 34.8273 10.3652 34.8518 10.2308 34.8516C9.73964 34.8507 9.31683 34.5044 9.21905 34.023C9.12127 33.5417 9.37549 33.0579 9.8274 32.8654L14.6067 30.8895L14.9998 31.8413L15.3929 32.793Z" fill="#B19046"/>
<path d="M60 52.7586C60 54.6791 59.2371 56.521 57.879 57.879C56.521 59.237 54.6792 60 52.7586 60H7.24138C3.24208 60 0 56.7579 0 52.7586C0 48.7593 3.24208 45.5172 7.24138 45.5172C7.94201 45.5152 8.63912 45.6163 9.31034 45.8172C9.39126 41.7421 11.7467 38.0553 15.4105 36.2692C19.0742 34.4831 23.4295 34.8984 26.6897 37.3448C28.8894 31.4954 34.9577 28.0561 41.1063 29.1741C47.2549 30.292 51.7241 35.6471 51.7241 41.8965C51.7268 43.1835 51.535 44.4634 51.1552 45.6931C51.6817 45.5767 52.2194 45.5177 52.7586 45.5172C54.6792 45.5172 56.521 46.2801 57.879 47.6382C59.2371 48.9962 60 50.8381 60 52.7586Z" fill="#E6E7E8"/>
<path d="M21.0518 5.53443C20.3994 6.27957 19.5494 6.82474 18.6001 7.10684C17.627 7.27344 16.6266 7.16229 15.7139 6.78615L15.9104 1.32408C15.9311 0.716023 16.3539 0.196002 16.9449 0.0516695C17.0436 0.0311168 17.1441 0.0207178 17.2449 0.0206351C17.7459 0.0192568 18.207 0.293546 18.4449 0.734428L21.0518 5.53443Z" fill="#2C2F38"/>
<path d="M41.0897 22.8517C38.5106 22.9819 35.9251 22.8188 33.3828 22.3655C33.538 20.6793 33.7656 19.0138 34.0345 17.3483C36.3621 17.4931 38.7104 17.6379 41.1001 17.7827C41.1897 19.4713 41.1863 21.1635 41.0897 22.8517Z" fill="#95A5A5"/>
<path d="M34.0342 17.3483C34.0342 17.3483 29.8735 13.5755 33.6462 9.4138C36.7828 5.95449 38.0293 3.59277 37.9497 1.35415C37.9413 1.1444 38.062 0.950845 38.2541 0.86612C38.4461 0.781395 38.6705 0.822735 38.8197 0.970355C41.3676 3.46449 47.1152 10.4266 41.0387 17.7807" fill="#805333"/>
<path d="M38.9847 15.2068C38.5929 15.2068 38.2346 14.9855 38.0594 14.635C37.8842 14.2845 37.922 13.8651 38.1571 13.5517C39.0636 12.3094 39.4343 10.7556 39.1864 9.23788C39.0814 8.87758 39.1797 8.48864 39.4434 8.22156C39.707 7.95448 40.0947 7.85115 40.4563 7.95155C40.8179 8.05195 41.0968 8.34034 41.185 8.70513C41.5998 10.8386 41.1007 13.0481 39.8092 14.7962C39.6138 15.0546 39.3087 15.2066 38.9847 15.2068Z" fill="#603E26"/>
<path d="M25.6344 53.793C25.2198 53.793 24.8452 53.5455 24.6827 53.164C24.3479 52.382 24.1755 51.5402 24.1758 50.6896C24.1741 47.7821 26.1908 45.2631 29.0281 44.6286C31.8655 43.9941 34.7631 45.4142 35.9999 48.0454C36.2433 48.5625 36.0215 49.1789 35.5044 49.4223C34.9873 49.6657 34.3709 49.4439 34.1275 48.9268C33.4527 47.4695 31.9886 46.5409 30.3827 46.5516C28.0974 46.5516 26.2447 48.4042 26.2447 50.6896C26.2445 51.2615 26.3606 51.8274 26.5861 52.353C26.6937 52.6054 26.6966 52.8902 26.5941 53.1447C26.4917 53.3993 26.2923 53.6027 26.0399 53.7102C25.9118 53.7652 25.7738 53.7933 25.6344 53.793Z" fill="#BDC3C7"/>
<path d="M41.3793 51.031C40.974 51.031 40.6061 50.7945 40.4379 50.4258C39.9319 49.3272 38.8337 48.6226 37.6241 48.6206C36.9257 48.6191 36.248 48.8572 35.7041 49.2951C35.2573 49.6513 34.6063 49.5779 34.2501 49.1311C33.8939 48.6844 33.9673 48.0334 34.4141 47.6772C35.3236 46.9454 36.4567 46.5481 37.6241 46.5517C39.6441 46.5535 41.4783 47.7311 42.3206 49.5672C42.4667 49.8874 42.4399 50.26 42.2495 50.556C42.0591 50.8521 41.7313 51.031 41.3793 51.031Z" fill="#BDC3C7"/>
<path d="M14.4827 45.5172C13.9114 45.5172 13.4482 45.054 13.4482 44.4827C13.4482 40.6779 17.1031 39.4137 17.2593 39.363C17.802 39.1808 18.3898 39.473 18.572 40.0158C18.7543 40.5586 18.462 41.1463 17.9193 41.3286C16.5525 41.7948 15.6033 43.0411 15.5172 44.4827C15.5172 45.054 15.0541 45.5172 14.4827 45.5172Z" fill="#BDC3C7"/>
<path d="M32.0689 38.2758C31.9838 38.2761 31.899 38.2657 31.8165 38.2447C31.2623 38.1059 30.9256 37.5441 31.0645 36.9899C31.7592 34.1322 34.3007 32.1074 37.2414 32.0689C37.8127 32.0674 38.277 32.5294 38.2784 33.1007C38.2798 33.6721 37.8179 34.1364 37.2465 34.1378C35.258 34.1873 33.5484 35.5613 33.0724 37.4927C32.9571 37.9529 32.5434 38.2757 32.0689 38.2758Z" fill="#BDC3C7"/>
<path d="M59.9376 20.8034C59.9712 20.9694 59.9253 21.1416 59.8135 21.2689C58.4909 22.8124 57.4319 24.5635 56.679 26.4516C56.3134 26.7242 55.8991 26.9243 55.4583 27.0413C54.3287 27.3399 53.1308 27.2413 52.0652 26.762C52.0548 26.762 52.0548 26.7516 52.0445 26.7516C50.9415 26.34 50.0161 25.5573 49.4273 24.5378C49.2074 24.1607 49.0567 23.7473 48.9824 23.3172C49.7858 21.4331 50.2784 19.4313 50.441 17.3896C50.4494 17.2188 50.5426 17.0635 50.6893 16.9758L56.4928 13.3551L57.9928 12.4137L58.3962 14.1413L59.9376 20.8034Z" fill="#F0C419"/>
<path d="M57.9928 12.4137L54.8376 20.0585H54.8272L52.0652 26.762C52.0548 26.762 52.0548 26.7516 52.0445 26.7516C50.9415 26.34 50.0161 25.5573 49.4272 24.5378C49.2074 24.1607 49.0567 23.7473 48.9824 23.3171C49.7858 21.4331 50.2784 19.4313 50.441 17.3896C50.4494 17.2188 50.5425 17.0635 50.6893 16.9758L56.4928 13.3551L57.9928 12.4137Z" fill="#F3D55B"/>
<path d="M58.3969 14.1413L56.1727 19.4999C56.014 19.8862 55.6386 20.1392 55.221 20.1413C55.0891 20.1398 54.959 20.1116 54.8382 20.0585H54.8279C54.4401 19.9017 54.1864 19.5251 54.1865 19.1068C54.189 18.9684 54.2171 18.8316 54.2693 18.7034L56.4934 13.3551L57.9934 12.4137L58.3969 14.1413Z" fill="#E57E25"/>
</g>
<defs>
<clipPath id="clip0">
<rect width="60" height="60" fill="white"/>
</clipPath>
</defs>
</svg>
