<svg width="78" height="78" viewBox="0 0 78 78" fill="none" xmlns="http://www.w3.org/2000/svg">
<g clip-path="url(#clip0)">
<path d="M69.4403 77.9482H8.55878C6.96393 77.9482 5.67139 76.6557 5.67139 75.0608V28.5061H72.3283V75.0608C72.3283 76.6557 71.0352 77.9482 69.4403 77.9482Z" fill="#FFC73B"/>
<path d="M5.67139 28.5061H72.3283V38.1936H5.67139V28.5061Z" fill="#EFB025"/>
<path d="M78 18.4067V30.4085C78 31.6904 76.9598 32.7288 75.6779 32.7288H2.32027C1.03844 32.7288 0 31.6904 0 30.4085V18.4067C0 17.1249 1.03844 16.0864 2.32027 16.0864H75.6779C76.9598 16.0864 78 17.1249 78 18.4067Z" fill="#FFC73B"/>
<path d="M36.3481 21.6042C35.8417 22.1939 35.3448 22.792 34.8598 23.3966C33.0525 25.6455 31.3981 28.002 29.9027 30.4479C29.4427 31.2001 28.9987 31.96 28.5679 32.7289H12.7485C13.6727 30.6317 14.6862 28.5733 15.7841 26.5613C17.7753 22.911 20.0473 19.4083 22.586 16.0865C23.1924 15.2932 23.8131 14.5095 24.4492 13.7377C24.8301 13.2723 25.2175 12.8135 25.6103 12.3564C27.054 13.6002 28.4965 14.8427 29.9408 16.0865C30.1645 16.2781 30.3883 16.4721 30.6114 16.6643C32.3158 18.1318 34.0201 19.5987 35.7239 21.068C35.9328 21.2453 36.1398 21.4257 36.3481 21.6042Z" fill="#EFB025"/>
<path d="M59.9513 32.7289H44.1308C43.7017 31.96 43.256 31.2001 42.796 30.4479C41.3005 28.002 39.6444 25.6455 37.8389 23.3966C37.3521 22.792 36.8552 22.1939 36.3481 21.6042C36.557 21.4257 36.7641 21.2465 36.973 21.068C38.6785 19.5987 40.3829 18.13 42.0866 16.6643C42.3104 16.4721 42.5341 16.2781 42.7579 16.0865C44.2016 14.8427 45.6459 13.6002 47.0884 12.3564C47.4811 12.8123 47.8685 13.2723 48.2494 13.7365C48.8867 14.5095 49.508 15.2932 50.1126 16.0865C52.6513 19.4083 54.9234 22.911 56.9157 26.5613C58.0137 28.5733 59.0271 30.6317 59.9513 32.7289Z" fill="#EFB025"/>
<path d="M38.9989 21.6055C38.4919 22.1947 37.995 22.7927 37.51 23.3973C35.7033 25.6462 34.0484 28.0028 32.5529 30.4492C27.8052 38.2098 24.6518 46.8791 23.3218 55.9531C21.3229 53.3019 19.4781 50.4336 17.8184 47.3665C14.8989 49.2708 12.0454 51.4488 9.29785 53.8994C10.7088 44.2744 13.8176 35.0231 18.4349 26.562C20.901 22.0405 23.7991 17.7446 27.0995 13.7384C27.4803 13.273 27.8677 12.8148 28.2605 12.3572C29.9279 13.7931 31.5942 15.2291 33.2622 16.6651C34.966 18.1326 36.6703 19.5995 38.3747 21.0687C38.583 21.2461 38.7901 21.4264 38.9989 21.6055Z" fill="#FF4440"/>
<path d="M68.7013 53.8994C65.9538 51.4488 63.1003 49.2708 60.1808 47.3665C58.521 50.4336 56.6763 53.3019 54.6773 55.9531C53.3473 46.8791 50.1945 38.2098 45.4463 30.4492C43.9508 28.0028 42.2946 25.6462 40.4891 23.3973C40.0023 22.7927 39.5054 22.1947 38.999 21.6055C39.2073 21.4264 39.4144 21.2473 39.6233 21.0687C41.3288 19.5995 43.0332 18.1308 44.7375 16.6651C46.405 15.2273 48.073 13.7931 49.7387 12.3572C50.1314 12.813 50.5188 13.273 50.8997 13.7372C54.2007 17.7434 57.0988 22.0393 59.566 26.562C64.1822 35.0231 67.2903 44.2744 68.7013 53.8994Z" fill="#FF4440"/>
<path d="M32.7896 21.6055H45.2097V32.7289H32.7896V21.6055Z" fill="#FF4440"/>
<path d="M59.566 26.5619L45.4463 30.4491C43.9508 28.0026 42.2946 25.6461 40.4891 23.3972L39.6233 21.0686L38.999 19.3893L44.7375 16.6649L50.8997 13.7371C54.2007 17.7432 57.0988 22.0392 59.566 26.5619Z" fill="#EA2F2F"/>
<path d="M38.9986 19.3893L38.3743 21.0686L37.5097 23.3972C35.703 25.6461 34.048 28.0027 32.5526 30.4491L18.4346 26.5619C20.9006 22.0404 23.7987 17.7444 27.0991 13.7383L33.2619 16.6649L38.9986 19.3893Z" fill="#EA2F2F"/>
<path d="M61.5339 0.539872L38.9995 11.2414L43.3282 22.8832L67.3807 16.2628C70.5263 15.397 72.2545 12.021 71.1173 8.96282L69.132 3.62483C67.9954 0.566651 64.4814 -0.859786 61.5339 0.539872Z" fill="#FF4440"/>
<path d="M16.4653 0.539872L38.9997 11.2414L34.671 22.8832L10.6191 16.2628C7.47344 15.397 5.74529 12.021 6.88251 8.96282L8.86714 3.62483C10.0044 0.566651 13.5178 -0.859786 16.4653 0.539872Z" fill="#FF4440"/>
<path d="M44.38 15.9198C43.9706 15.9198 43.5689 15.7175 43.3327 15.3467C42.9631 14.7689 43.1315 14.0012 43.7094 13.6317C43.8802 13.5228 47.9387 10.9401 52.5983 9.05541C59.3157 6.33822 63.8015 6.48401 65.9295 9.48864C66.3265 10.0486 66.1937 10.824 65.6338 11.2204C65.0738 11.6167 64.299 11.4846 63.9026 10.9246C61.0176 6.85178 49.0224 13.1848 45.0477 15.7246C44.8406 15.8567 44.6091 15.9198 44.38 15.9198Z" fill="#EA2F2F"/>
<path d="M33.4956 15.9198C33.2665 15.9198 33.035 15.8567 32.8279 15.7246C28.8533 13.1848 16.858 6.85178 13.973 10.9246C13.5761 11.4846 12.8013 11.6167 12.2413 11.2204C11.6819 10.8234 11.5492 10.0486 11.9461 9.48864C14.0742 6.48401 18.5594 6.33822 25.2774 9.05541C29.937 10.9395 33.9955 13.5228 34.1663 13.6317C34.7441 14.0012 34.9125 14.7689 34.5436 15.3467C34.3061 15.7175 33.9051 15.9198 33.4956 15.9198Z" fill="#EA2F2F"/>
<path d="M42.5328 7.23999H35.4655C33.5314 7.23999 31.9634 8.80806 31.9634 10.7427V21.0098C31.9634 22.9445 33.5314 24.5126 35.4655 24.5126H42.5328C44.4669 24.5126 46.0349 22.9445 46.0349 21.0098V10.7427C46.0349 8.80806 44.4669 7.23999 42.5328 7.23999Z" fill="#EA2F2F"/>
<path d="M32.7896 32.729H45.2097V77.9483H32.7896V32.729Z" fill="#FF4440"/>
<path d="M32.7896 32.729H45.2097V38.1937H32.7896V32.729Z" fill="#EA2F2F"/>
</g>
<defs>
<clipPath id="clip0">
<rect width="78" height="78" fill="white"/>
</clipPath>
</defs>
</svg>
