<svg width="182" height="87" viewBox="0 0 182 87" fill="none" xmlns="http://www.w3.org/2000/svg">
<path d="M2.6464 72.4394V66.7469H0.321289V66.2659H5.53275V66.7469H3.16755V72.4394H2.6464Z" fill="white"/>
<path d="M8.37793 72.4394V66.2659H8.89908V70.6756L8.85899 71.6778H8.89908C9.17969 71.2769 9.42022 70.9161 9.62066 70.6756L12.9881 66.2659H13.4691V72.4394H12.948V68.0297L12.9881 67.0676H12.948C12.6674 67.4685 12.4268 67.7892 12.2264 68.0297L8.85899 72.4394H8.37793Z" fill="white"/>
<path d="M17.0371 72.4394V66.2659H22.008V72.4394H21.4869V66.7469H17.5583V72.4394H17.0371Z" fill="white"/>
<path d="M25.1748 69.3125C25.1748 68.4306 25.4955 67.6689 26.0968 67.0275C26.7382 66.4262 27.4598 66.1055 28.3819 66.1055C29.2638 66.1055 30.0255 66.4262 30.6268 67.0275C31.2281 67.6288 31.5488 68.3905 31.5488 69.3125C31.5488 70.2346 31.2281 70.9962 30.6268 71.6376C29.9854 72.2791 29.2638 72.5998 28.3819 72.5998C27.4999 72.5998 26.7382 72.2791 26.0968 71.6376C25.4554 70.9962 25.1748 70.2346 25.1748 69.3125ZM25.696 69.3125C25.696 70.0742 25.9365 70.7557 26.4576 71.2768C26.9788 71.798 27.5801 72.0786 28.3418 72.0786C29.0634 72.0786 29.7048 71.798 30.2259 71.2768C30.7471 70.7557 30.9876 70.0742 30.9876 69.3125C30.9876 68.5508 30.7471 67.9094 30.2259 67.3883C29.7048 66.8671 29.1034 66.6266 28.3418 66.6266C27.6202 66.6266 26.9788 66.8671 26.4576 67.3883C25.9766 67.9094 25.696 68.5508 25.696 69.3125Z" fill="white"/>
<path d="M34.7158 72.4394V66.2659H38.2436V66.7469H35.237V72.4394H34.7158Z" fill="white"/>
<path d="M41.0898 74.9249V66.2658H41.611V66.9874L41.5709 67.4685H41.611C41.8114 67.0275 42.092 66.7068 42.4929 66.4663C42.8938 66.2257 43.3348 66.1055 43.8559 66.1055C44.6577 66.1055 45.2991 66.3861 45.7802 66.9874C46.2612 67.5887 46.5017 68.3504 46.5017 69.3526C46.5017 70.3147 46.2612 71.1165 45.7401 71.6777C45.2189 72.2791 44.5775 72.5597 43.7758 72.5597C43.2947 72.5597 42.8938 72.4394 42.4929 72.1989C42.092 71.9584 41.8114 71.5976 41.611 71.1566H41.5709C41.611 71.3169 41.611 71.4773 41.611 71.7178V74.8848H41.0898V74.9249ZM41.611 69.3526C41.611 70.0742 41.8114 70.7156 42.1722 71.2768C42.5731 71.798 43.0943 72.0786 43.7357 72.0786C44.3771 72.0786 44.8982 71.8381 45.2991 71.357C45.7 70.876 45.9405 70.1945 45.9405 69.3526C45.9405 68.5108 45.7401 67.8694 45.3392 67.3883C44.9383 66.9072 44.4172 66.6266 43.7758 66.6266C43.1343 66.6266 42.6132 66.8671 42.2123 67.3081C41.8114 67.7892 41.611 68.4707 41.611 69.3526Z" fill="white"/>
<path d="M49.1084 70.7958C49.1084 70.5152 49.1485 70.2346 49.2688 70.0341C49.389 69.7936 49.5093 69.6333 49.6696 69.4729C49.83 69.3125 50.0304 69.1923 50.271 69.1121C50.5115 68.9918 50.752 68.9117 50.9525 68.8716C51.1529 68.8315 51.3934 68.7914 51.674 68.7513C51.9547 68.7112 52.1952 68.7112 52.3555 68.7112C52.5159 68.7112 52.7163 68.7112 52.9168 68.7112H53.3177V68.5108C53.3177 67.268 52.7564 66.6667 51.634 66.6667C50.9925 66.6667 50.3912 66.8672 49.8701 67.268L49.5895 66.8672C49.83 66.6667 50.1507 66.5064 50.5115 66.3861C50.8723 66.2658 51.2732 66.1857 51.674 66.1857C52.3956 66.1857 52.9168 66.3861 53.3177 66.787C53.6785 67.1879 53.8789 67.7491 53.8789 68.5108V72.4795H53.3577V71.6778L53.3978 71.1165H53.3577C53.1974 71.5575 52.9168 71.9183 52.556 72.1989C52.1551 72.4795 51.7141 72.6399 51.2331 72.6399C50.6718 72.6399 50.1908 72.4795 49.7498 72.1588C49.3489 71.8381 49.1084 71.3971 49.1084 70.7958ZM49.6696 70.7557C49.6696 71.1165 49.7899 71.4372 50.0705 71.6778C50.3511 71.9584 50.752 72.0786 51.2331 72.0786C51.8745 72.0786 52.3956 71.798 52.7564 71.2769C53.1573 70.7557 53.3177 70.1544 53.3177 69.4729V69.1522H52.9168C52.6762 69.1522 52.4357 69.1522 52.2754 69.1522C52.115 69.1522 51.8745 69.1923 51.5939 69.1923C51.3132 69.2324 51.0326 69.2725 50.8723 69.3526C50.6718 69.4328 50.4714 69.513 50.271 69.6333C50.0705 69.7535 49.9102 69.9139 49.7899 70.0742C49.7097 70.2747 49.6696 70.5152 49.6696 70.7557Z" fill="white"/>
<path d="M57.0049 69.3125C57.0049 68.3905 57.3256 67.6288 57.9269 67.0676C58.5282 66.5063 59.33 66.1856 60.3322 66.1456V63.8204H60.8534V66.1456C61.8556 66.1856 62.6573 66.5063 63.2586 67.0676C63.86 67.6288 64.1807 68.3905 64.1807 69.3125C64.1807 70.2746 63.86 71.0363 63.2586 71.5975C62.6573 72.1989 61.8556 72.5196 60.8534 72.5597V74.8848H60.3322V72.5597C59.3701 72.5196 58.5683 72.1989 57.9269 71.5975C57.3256 71.0363 57.0049 70.2746 57.0049 69.3125ZM57.5661 69.3125C57.5661 70.1143 57.8066 70.7557 58.3278 71.2768C58.8489 71.7579 59.4904 72.0385 60.3322 72.0786V66.6266C59.4904 66.6667 58.8489 66.9072 58.3278 67.3883C57.8066 67.9094 57.5661 68.5508 57.5661 69.3125ZM60.8534 72.0786C61.6952 72.0385 62.3366 71.7579 62.8578 71.2768C63.3789 70.7958 63.6194 70.1143 63.6194 69.3125C63.6194 68.5108 63.3789 67.8693 62.8578 67.4284C62.3366 66.9473 61.6952 66.7068 60.8534 66.6667V72.0786Z" fill="white"/>
<path d="M67.3477 72.4394V66.2659H67.8688V70.6756L67.8287 71.6778H67.8688C68.1494 71.2769 68.39 70.9161 68.5904 70.6756L71.9578 66.2659H72.4389V72.4394H71.9177V68.0297L71.9578 67.0676H71.9177C71.6371 67.4685 71.3966 67.7892 71.1961 68.0297L67.8287 72.4394H67.3477Z" fill="white"/>
<path d="M75.3652 72.4394L76.8886 70.2747L77.1692 69.9139V69.8738C76.7683 69.8337 76.4075 69.6333 76.1269 69.3126C75.8062 68.9919 75.6859 68.591 75.6859 68.1099C75.6859 67.5086 75.8864 67.0676 76.2873 66.7469C76.6881 66.4262 77.2093 66.2659 77.8908 66.2659H79.7749V72.4394H79.2538V69.954H77.7705L76.0467 72.4394H75.3652ZM77.8106 69.4729H79.2538V66.7469H77.8908C76.7683 66.7469 76.2472 67.1879 76.2472 68.1099C76.2472 68.5509 76.4075 68.8716 76.6881 69.1121C77.0089 69.3527 77.3696 69.4729 77.8106 69.4729Z" fill="white"/>
<path d="M0.120117 84.3056H0.881793C1.68356 83.3034 2.08444 81.6998 2.08444 79.495V78.613H5.57211V84.3056H6.41396V86.2699H5.89282V84.7866H0.641264V86.2699H0.120117V84.3056ZM1.48312 84.3056H5.05097V79.0941H2.60559V79.495C2.60559 81.6197 2.24479 83.2232 1.48312 84.3056Z" fill="white"/>
<path d="M8.29785 84.8266V84.3456C8.85909 84.2654 9.25997 83.9046 9.5005 83.2231C9.74103 82.5817 9.86129 81.6597 9.86129 80.4169V78.5729H13.3089V84.7465H12.7877V79.0539H10.3824V80.4169C10.3824 81.9002 10.2221 82.9826 9.86129 83.6641C9.54059 84.3857 9.01944 84.7465 8.29785 84.8266Z" fill="white"/>
<path d="M16.0352 84.7866L17.5585 82.6219L17.8391 82.2611V82.221C17.4382 82.1809 17.0775 81.9804 16.7968 81.6597C16.4761 81.339 16.3559 80.9381 16.3559 80.4571C16.3559 79.8558 16.5563 79.4148 16.9572 79.0941C17.3581 78.7734 17.8792 78.613 18.5607 78.613H20.4449V84.7866H19.9237V82.3011H18.4004L16.6766 84.7866H16.0352ZM18.4805 81.8201H19.9237V79.0941H18.5607C17.4382 79.0941 16.9171 79.5351 16.9171 80.4571C16.9171 80.8981 17.0774 81.2188 17.3581 81.4593C17.6387 81.6998 18.0396 81.8201 18.4805 81.8201Z" fill="white"/>
<path d="M27.8613 81.3391C27.8613 80.8179 27.9014 80.3369 27.9415 79.9761C27.9816 79.5752 28.1019 79.2144 28.2622 78.8536C28.4226 78.4928 28.6631 78.132 28.9838 77.8514C29.3045 77.5708 29.7054 77.2902 30.1864 77.0496L32.5516 75.8871L32.7922 76.3281L30.3869 77.5307C29.6653 77.8915 29.1442 78.3325 28.8635 78.8135C28.5829 79.2946 28.3825 79.936 28.3424 80.7378H28.3825C28.8635 79.7355 29.6653 79.2545 30.8279 79.2545C31.5895 79.2545 32.1909 79.495 32.6719 80.0162C33.153 80.5373 33.3935 81.2188 33.3935 82.1008C33.3935 82.9426 33.153 83.6241 32.6318 84.1853C32.1107 84.7065 31.4693 84.9871 30.6675 84.9871C29.7455 84.9871 29.0239 84.6664 28.5829 83.9849C28.0618 83.3034 27.8613 82.4215 27.8613 81.3391ZM28.4627 82.0206C28.4627 82.7422 28.6631 83.3435 29.1041 83.7845C29.5049 84.2254 30.0261 84.4259 30.6675 84.4259C31.2688 84.4259 31.79 84.2254 32.2309 83.7845C32.6318 83.3435 32.8724 82.7823 32.8724 82.0607C32.8724 81.3391 32.6719 80.7778 32.271 80.3369C31.8701 79.8959 31.349 79.6955 30.7878 79.6955C30.1464 79.6955 29.5851 79.936 29.1842 80.377C28.6631 80.8179 28.4627 81.3792 28.4627 82.0206Z" fill="white"/>
<path d="M36.3193 84.7866V78.613H36.8405V83.0227L36.8004 84.0249H36.8405C37.1211 83.6241 37.3616 83.2633 37.5621 83.0227L40.9295 78.613H41.4105V84.7866H40.8894V80.3769L40.9295 79.4148H40.8894C40.6088 79.8157 40.3682 80.1364 40.1678 80.3769L36.8004 84.7866H36.3193Z" fill="white"/>
<path d="M44.0967 84.0651L44.4174 83.6642C44.8984 84.1853 45.4597 84.4659 46.1011 84.4659C46.5421 84.4659 46.9429 84.3457 47.2636 84.1051C47.5844 83.8646 47.7848 83.5439 47.7848 83.1029C47.7848 82.7021 47.6244 82.3814 47.3438 82.1809C47.0632 81.9805 46.6222 81.8602 46.061 81.8602H45.3394V81.3791H46.0209C46.502 81.3791 46.9029 81.2589 47.1835 81.0584C47.4641 80.858 47.5844 80.5774 47.5844 80.1765C47.5844 79.7756 47.4641 79.495 47.1835 79.2946C46.9029 79.0941 46.5821 79.0139 46.1412 79.0139C45.5399 79.0139 45.0588 79.2144 44.6178 79.5752L44.2971 79.1743C44.8183 78.7333 45.4196 78.4928 46.1813 78.4928C46.7425 78.4928 47.2236 78.6131 47.5844 78.8937C47.9451 79.1743 48.1055 79.5752 48.1055 80.0963C48.1055 80.8179 47.7848 81.2589 47.1033 81.4994V81.5395C47.4641 81.6197 47.7848 81.78 47.9852 82.0606C48.1857 82.3012 48.3059 82.662 48.3059 83.0628C48.3059 83.6642 48.1055 84.1051 47.6645 84.4259C47.2236 84.7466 46.7024 84.9069 46.1011 84.9069C45.3795 84.947 44.698 84.6263 44.0967 84.0651Z" fill="white"/>
<path d="M51.3125 84.7866V78.613H51.8336V81.3791H55.8425V78.613H56.3636V84.7866H55.8425V81.8602H51.8336V84.7866H51.3125Z" fill="white"/>
<path d="M59.3301 81.6998C59.3301 80.6976 59.6107 79.8958 60.212 79.3346C60.8133 78.7733 61.4948 78.4526 62.3367 78.4526C63.1385 78.4526 63.7398 78.7333 64.1808 79.2544C64.6217 79.7755 64.8222 80.457 64.8222 81.2588C64.8222 81.339 64.8222 81.4593 64.7821 81.5795H59.8512C59.8512 82.4615 60.0918 83.143 60.6129 83.624C61.134 84.1452 61.7354 84.3857 62.497 84.3857C63.2587 84.3857 63.9001 84.1452 64.4213 83.624L64.7019 84.065C64.4213 84.3055 64.1006 84.506 63.6997 84.6663C63.2988 84.8267 62.8979 84.9068 62.497 84.9068C61.6151 84.9068 60.8534 84.6262 60.2521 84.0249C59.6107 83.4236 59.3301 82.6619 59.3301 81.6998ZM59.8913 81.1385H64.301C64.2609 80.417 64.0605 79.8958 63.6997 79.4949C63.3389 79.1341 62.8578 78.9337 62.3367 78.9337C61.7354 78.9337 61.2142 79.1341 60.7733 79.4949C60.2922 79.8958 60.0116 80.457 59.8913 81.1385Z" fill="white"/>
<path d="M68.2296 84.0249C67.6283 83.4236 67.3076 82.6619 67.3076 81.6998C67.3076 80.7377 67.6283 79.976 68.2296 79.3747C68.8711 78.7733 69.5926 78.4526 70.4746 78.4526C70.8755 78.4526 71.2764 78.5328 71.6772 78.6932C72.0781 78.8535 72.3988 79.054 72.6794 79.3346L72.3587 79.7355C72.1182 79.4949 71.8376 79.2945 71.5169 79.1742C71.1561 79.0139 70.8354 78.9738 70.4746 78.9738C69.753 78.9738 69.1116 79.2143 68.5904 79.7355C68.0693 80.2566 67.8288 80.898 67.8288 81.6998C67.8288 82.5015 68.0693 83.143 68.5904 83.6641C69.1116 84.1852 69.7129 84.4258 70.4746 84.4258C70.8755 84.4258 71.2363 84.3456 71.5971 84.1852C71.9579 84.0249 72.2786 83.8245 72.5191 83.5438L72.7997 83.9848C72.5191 84.2654 72.1984 84.506 71.7975 84.7064C71.3966 84.8667 70.9556 84.9469 70.4746 84.9469C69.5926 84.9469 68.831 84.6262 68.2296 84.0249Z" fill="white"/>
<path d="M75.085 83.1429C75.085 82.8622 75.125 82.5816 75.2453 82.3812C75.3656 82.1407 75.4858 81.9803 75.6462 81.82C75.8065 81.6596 76.007 81.5393 76.2475 81.4592C76.488 81.3389 76.7286 81.2587 76.929 81.2186C77.1295 81.1785 77.37 81.1385 77.6506 81.0984C77.9312 81.0583 78.1717 81.0583 78.3321 81.0583C78.4925 81.0583 78.6929 81.0583 78.8933 81.0583H79.2942V80.8578C79.2942 79.6151 78.733 79.0138 77.6105 79.0138C76.9691 79.0138 76.3678 79.2142 75.8466 79.6151L75.566 79.2142C75.8065 79.0138 76.1273 78.8534 76.488 78.7332C76.8488 78.6129 77.2497 78.5327 77.6506 78.5327C78.3722 78.5327 78.8933 78.7332 79.2942 79.134C79.655 79.5349 79.8555 80.0962 79.8555 80.8578V84.8266H79.3343V84.0248L79.3744 83.4636H79.3343C79.174 83.9045 78.8933 84.2653 78.5325 84.5459C78.1317 84.8266 77.6907 84.9869 77.2096 84.9869C76.6484 84.9869 76.1673 84.8266 75.7264 84.5059C75.2854 84.1451 75.085 83.7041 75.085 83.1429ZM75.6061 83.1028C75.6061 83.4636 75.7264 83.7843 76.007 84.0248C76.2876 84.3054 76.6885 84.4257 77.1695 84.4257C77.811 84.4257 78.3321 84.1451 78.6929 83.6239C79.0938 83.1028 79.2541 82.5015 79.2541 81.82V81.4992H78.8532C78.6127 81.4992 78.3722 81.4992 78.2118 81.4992C78.0515 81.4992 77.811 81.5393 77.5303 81.5393C77.2497 81.5794 76.9691 81.6195 76.8088 81.6997C76.6083 81.7799 76.4079 81.86 76.2074 81.9803C76.007 82.1006 75.8466 82.2609 75.7264 82.4213C75.6462 82.6217 75.6061 82.8622 75.6061 83.1028Z" fill="white"/>
<path d="M97.0537 84.987V55.9231H107.717C110.403 55.9231 112.608 56.7649 114.292 58.4086C115.975 60.0522 116.817 62.257 116.817 65.0231C116.817 67.7491 115.975 69.9941 114.252 71.6778C112.568 73.3615 110.363 74.2434 107.717 74.2434H101.143V84.987H97.0537ZM101.103 70.6756H107.036C108.759 70.6756 110.122 70.1544 111.165 69.1522C112.167 68.15 112.688 66.7469 112.688 64.983C112.688 63.2592 112.207 61.8962 111.205 60.894C110.203 59.8918 108.84 59.4108 107.116 59.4108H101.143V70.6756H101.103Z" fill="#8DC63F"/>
<path d="M121.267 84.9871V64.1412H125.155V67.8694L125.035 69.3928H125.115C125.636 67.7892 126.478 66.4663 127.681 65.424C128.843 64.3817 130.206 63.8606 131.77 63.8606C132.05 63.8606 132.411 63.9007 132.852 63.9408V67.9095C132.652 67.8694 132.251 67.8293 131.69 67.8293C129.605 67.8293 128.001 68.6712 126.919 70.3549C125.837 72.0386 125.275 74.043 125.275 76.2879V84.9871H121.267Z" fill="#8DC63F"/>
<path d="M136.661 55.9231H140.79V59.972H136.661V55.9231ZM136.741 64.1412H140.75V84.987H136.741V64.1412Z" fill="#8DC63F"/>
<path d="M146.884 84.9871V64.1412H150.772V66.9875L150.652 68.5509H150.732C151.253 67.3884 152.175 66.2659 153.538 65.2236C154.901 64.1813 156.585 63.6602 158.63 63.6602C163.36 63.6602 165.765 66.306 165.765 71.6377V84.9871H161.757V72.5597C161.757 70.876 161.476 69.5932 160.955 68.6712C160.434 67.7492 159.391 67.3082 157.828 67.3082C155.823 67.3082 154.18 68.0298 152.857 69.513C151.534 70.9963 150.893 72.8003 150.893 74.965V84.9871H146.884Z" fill="#8DC63F"/>
<path d="M172.539 77.3704V67.6289H169.813V64.3818H172.62V58.4487H176.548V64.3818H181.559V67.6289H176.548V76.9294C176.548 77.7311 176.669 78.4127 176.869 79.014C177.069 79.6153 177.35 80.0563 177.671 80.377C177.991 80.6977 178.352 80.9783 178.793 81.1787C179.234 81.3792 179.595 81.4994 179.956 81.5395C180.317 81.5796 180.637 81.6197 180.998 81.6197C181.359 81.6197 181.68 81.5796 181.96 81.5395V85.0673C181.319 85.1475 180.838 85.1876 180.557 85.1876C179.916 85.1876 179.314 85.1475 178.673 85.0272C178.072 84.947 177.35 84.7065 176.588 84.4259C175.827 84.1052 175.145 83.7043 174.584 83.1431C174.023 82.6219 173.542 81.8202 173.141 80.8179C172.74 79.8558 172.539 78.6933 172.539 77.3704Z" fill="#8DC63F"/>
<path d="M182 20.2446V10.1824H147.444V0.561279L135.337 4.81063V10.1824V20.2446V35.9592C135.337 40.8098 136.58 44.3376 139.025 46.4623C141.47 48.627 144.918 49.6693 149.288 49.6693H155.461V39.4067H151.132C149.809 39.4067 148.887 39.1662 148.285 38.6451C147.724 38.1239 147.444 37.2821 147.444 36.0794V20.2446H156.864V49.6693H182V40.9301H167.768V33.8345H180.316V25.5362H167.768V20.2446H182Z" fill="#007655"/>
<path d="M122.55 9.30037V32.6317L110.122 13.6299L97.0537 18.24V49.6692H107.998V27.7009L122.55 49.6692H133.454V5.4519L122.55 9.30037Z" fill="#007655"/>
<path d="M92.724 19.8837C92.6839 19.8437 92.6839 19.8036 92.6438 19.7635L81.1385 23.8124C82.4614 25.4961 83.1028 27.741 83.1028 30.6274C83.1028 33.7943 82.3011 36.1996 80.6574 37.9234C79.0138 39.6071 77.0495 40.4891 74.7645 40.4891C72.4394 40.4891 70.5151 39.6472 68.9918 37.9234C67.4684 36.2397 66.7068 33.7943 66.7068 30.6274C66.7068 29.986 66.7468 29.4247 66.7869 28.8234L56.2437 32.5115V21.4472V0H42.0124L28.2221 34.3957L14.3115 0H0V49.6693H12.1066V19.8036L23.2912 49.6693H33.0728L44.1772 19.8837V49.6693H56.2838V39.8477C56.5244 40.3688 56.7649 40.8499 57.0455 41.371C58.8094 44.4578 61.2548 46.7829 64.3416 48.4666C67.4283 50.1102 70.916 50.9521 74.7645 50.9521C78.613 50.9521 82.1407 50.1102 85.2676 48.4666C88.3945 46.823 90.8799 44.4578 92.6839 41.371C94.4879 38.2842 95.4099 34.7164 95.4099 30.6675C95.4099 26.6186 94.528 22.9705 92.724 19.8837Z" fill="#007655"/>
</svg>
