<svg width="40" height="40" viewBox="0 0 40 40" fill="none" xmlns="http://www.w3.org/2000/svg">
<path d="M22.6406 15.6406H18.7891V11.7891C18.7891 10.9062 18.0781 10.1953 17.1953 10.1953C16.3125 10.1953 15.6016 10.9062 15.6016 11.7891V15.6406H11.75C10.8672 15.6406 10.1562 16.3516 10.1562 17.2344C10.1562 18.1172 10.8672 18.8281 11.75 18.8281H15.6016V22.6797C15.6016 23.5625 16.3125 24.2734 17.1953 24.2734C18.0781 24.2734 18.7891 23.5625 18.7891 22.6797V18.8281H22.6406C23.5234 18.8281 24.2344 18.1172 24.2344 17.2344C24.2344 16.3516 23.5156 15.6406 22.6406 15.6406Z" fill="white"/>
<path d="M17.2031 30.3672C9.94531 30.3672 4.0625 24.4922 4.0625 17.2344C4.0625 9.97656 9.94531 4.10156 17.2031 4.10156C24.4609 4.10156 30.3359 9.98438 30.3359 17.2344C30.3359 24.4844 24.4531 30.3672 17.2031 30.3672ZM38.6719 36.4609L29.8203 27.6094C32.1406 24.7891 33.5391 21.1719 33.5391 17.2344C33.5391 8.21094 26.2266 0.890625 17.1953 0.890625C8.16406 0.890625 0.859375 8.21094 0.859375 17.2344C0.859375 26.2578 8.17188 33.5781 17.2031 33.5781C21.1406 33.5781 24.75 32.1875 27.5703 29.8672L36.4219 38.7187C36.8281 39.1328 38.0703 39.3359 38.6797 38.7187C39.2969 38.0937 39.2969 37.0859 38.6719 36.4609Z" fill="white"/>
</svg>
